<?xml version="1.0" standalone="no"?>
<!DOCTYPE svg PUBLIC "-//W3C//DTD SVG 1.1//EN" "http://www.w3.org/Graphics/SVG/1.1/DTD/svg11.dtd" >
<svg xmlns="http://www.w3.org/2000/svg" xmlns:xlink="http://www.w3.org/1999/xlink" version="1.1">
<metadata>
Created by FontForge 20170731 at Tue Dec  3 19:07:46 2019
 By Aleksey,,,
Copyright (c) 2019 by Fontastica. All rights reserved.
</metadata>
<defs>
<font id="Dublin-ThinItalic" horiz-adv-x="1091" >
  <font-face 
    font-family="Dublin Thin Italic"
    font-weight="100"
    font-style="italic"
    font-stretch="normal"
    units-per-em="1000"
    panose-1="0 0 2 0 0 0 0 0 0 0"
    ascent="800"
    descent="-200"
    x-height="749"
    cap-height="749"
    bbox="-192 -255 1386 1071"
    underline-thickness="50"
    underline-position="-200"
    unicode-range="U+000D-2122"
  />
<missing-glyph horiz-adv-x="506" 
 />
    <glyph glyph-name=".notdef" horiz-adv-x="506" 
 />
    <glyph glyph-name=".null" horiz-adv-x="0" 
 />
    <glyph glyph-name="nonmarkingreturn" horiz-adv-x="333" 
 />
    <glyph glyph-name="CR" unicode="&#xd;" horiz-adv-x="506" 
 />
    <glyph glyph-name="space" unicode=" " horiz-adv-x="506" 
 />
    <glyph glyph-name="exclam" unicode="!" horiz-adv-x="280" 
d="M233 748h-114l-76 -474h115zM127 78h-115l-12 -78h115z" />
    <glyph glyph-name="quotedbl" unicode="&#x22;" horiz-adv-x="790" 
d="M396 876l6 36h-114l-5 -36q-13 -77 -81 -142q-19 -18 -61 -50l-40 -28l53 -52q16 12 49 35t49 35q126 93 144 202zM773 876l5 36h-112l-6 -36q-10 -69 -79 -141q-18 -21 -59 -57q-26 -22 -39 -32l54 -52q39 30 65 51q50 40 78 70q79 81 93 161z" />
    <glyph glyph-name="numbersign" unicode="#" horiz-adv-x="1153" 
d="M1075 501l27 47h-186l115 200h-91l-114 -200h-315l114 200h-89l-115 -200h-190l-28 -47h191l-140 -244h-196l-28 -48h197l-120 -209h90l119 209h315l-119 -209h89l120 209h181l28 48h-181l140 244h186zM344 257l140 244h315l-140 -244h-315z" />
    <glyph glyph-name="dollar" unicode="$" horiz-adv-x="964" 
d="M337 -9l-22 -141h95l21 134h20q70 1 127 10.5t113.5 32.5t97.5 68.5t60 110.5q1 1 3 16q7 44 -8.5 79t-46 57t-73 36.5t-85 20.5t-87.5 6h-52l43 273l23 -4q137 -22 257 -62l36 62q-110 35 -170 48q-16 4 -118 22l-17 3l22 138h-95l-22 -139l-18 -2q-339 -33 -371 -231
q-7 -49 27 -89q31 -39 83 -55q35 -11 110 -21q56 -8 85 -10h20l-46 -288l-23 4q-144 25 -299 86l-47 -71q170 -71 340 -92zM351 677q50 10 73 14l25 5l-43 -272l-22 1q-80 7 -96 10q-70 12 -90 44q-15 22 -9 64q5 34 30.5 62.5t57.5 44.5q29 16 74 27zM619 91
q-52 -22 -154 -31l-23 -3l46 289l20 1q5 0 15 0.5t15 0.5q86 0 145 -31q57 -31 47 -96q-14 -89 -111 -130z" />
    <glyph glyph-name="percent" unicode="%" horiz-adv-x="1191" 
d="M280 409q83 0 157 48.5t86 124.5t-46.5 125t-141.5 49t-157.5 -49t-86.5 -125t47 -124.5t142 -48.5zM910 744l-745 -744h112l745 744h-112zM441 583q-8 -53 -55 -85.5t-97 -32.5t-85.5 32.5t-27.5 85.5q8 54 54.5 86.5t96.5 32.5t86 -32.5t28 -86.5zM857 -9
q83 0 158.5 48.5t87.5 124.5t-47.5 125.5t-142.5 49.5t-157 -49.5t-85 -125.5q-12 -75 46 -124t140 -49zM1020 164q-8 -54 -54.5 -86.5t-96.5 -32.5t-86 33t-28 86t55 86t97 33q49 0 85 -33t28 -86z" />
    <glyph glyph-name="ampersand" unicode="&#x26;" horiz-adv-x="1061" 
d="M955 208l-62 46q-54 -46 -135 -101l-13 -8l-11 8q-104 80 -200 167l-26 23l76 26q70 24 119 73.5t59 114.5v3q6 95 -60.5 148t-168.5 53q-94 0 -180 -59t-100 -147q-6 -36 0 -59.5t26 -58.5l12 -23l-27 -9l-55 -18q-25 -8 -52 -21q-106 -56 -120 -144q-3 -14 -3 -28
q1 -61 33 -103.5t86.5 -63.5t111 -30t122.5 -9q169 0 325 62l10 4l8 -6q19 -13 66.5 -50t74.5 -55l64 62q-44 32 -105 73l-22 15l25 19q77 57 122 96zM522 692q60 0 101.5 -37t30.5 -100q-8 -49 -49.5 -84t-88.5 -45q-15 -4 -45 -6q-15 -1 -43 -1h-9l-5 7q-9 13 -22 26
q-8 8 -11 12q-5 5 -11 13q-24 35 -16 84q9 56 62 93.5t106 37.5zM244 318q46 18 117 25l8 1l6 -5q118 -104 252 -208l33 -26l-46 -12q-134 -33 -236 -33q-61 0 -98 8q-46 10 -82.5 41t-43.5 78q-2 15 1 30q10 68 89 101z" />
    <glyph glyph-name="quotesingle" unicode="'" horiz-adv-x="403" 
d="M388 876l5 36h-102l-5 -36q-13 -77 -81 -142q-19 -18 -61 -50l-40 -28l53 -52q16 12 49 35t49 35q114 84 133 202z" />
    <glyph glyph-name="parenleft" unicode="(" horiz-adv-x="398" 
d="M80 -179l104 36q-65 220 -18 519q49 302 182 518l-92 36q-145 -231 -197 -555q-51 -328 21 -554z" />
    <glyph glyph-name="parenright" unicode=")" horiz-adv-x="324" 
d="M-23 -144l92 -35q145 230 197 554q51 320 -22 555l-102 -36q64 -221 17 -519q-47 -296 -182 -519z" />
    <glyph glyph-name="asterisk" unicode="*" horiz-adv-x="604" 
d="M510 417l40 46l-163 86l191 87l-26 48l-182 -85l26 161h-75l-25 -160l-155 82l-40 -47l160 -85l-188 -90l28 -45l179 86l-25 -161h74l26 160z" />
    <glyph glyph-name="plus" unicode="+" horiz-adv-x="656" 
d="M340 391h-236l-8 -49h236l-31 -196h77l31 196h236l7 49h-235l31 196h-77z" />
    <glyph glyph-name="comma" unicode="," horiz-adv-x="269" 
d="M102 43l5 34h-112l-5 -34q-13 -80 -80 -142q-20 -20 -62 -50q-4 -3 -40 -28l53 -52q13 9 46.5 33t51.5 37q126 91 143 202z" />
    <glyph glyph-name="hyphen" unicode="-" horiz-adv-x="510" 
d="M421 391h-359l-8 -49h359z" />
    <glyph glyph-name="period" unicode="." horiz-adv-x="274" 
d="M109 78h-97l-12 -78h97z" />
    <glyph glyph-name="slash" unicode="/" horiz-adv-x="542" 
d="M-27 -150h109l602 1050h-108z" />
    <glyph glyph-name="zero" unicode="0" 
d="M749 20q126 45 220 138.5t113 211.5q19 124 -47.5 221t-184.5 140q-88 32 -185 32q-95 0 -193 -32q-131 -44 -228.5 -140.5t-116.5 -220.5q-19 -118 45.5 -211.5t175.5 -138.5q90 -36 193 -36q110 0 208 36zM656 708q66 0 134 -24.5t122.5 -66.5t84 -107.5t18.5 -139.5
q-12 -74 -62 -138.5t-118.5 -105.5t-143.5 -64.5t-141 -23.5t-133 23.5t-121.5 64.5t-83.5 105.5t-17 138.5q11 74 60.5 139.5t116.5 107.5t142 66.5t142 24.5z" />
    <glyph glyph-name="one" unicode="1" horiz-adv-x="434" 
d="M400 693l-110 -693h75l118 744h-297l-8 -51h222z" />
    <glyph glyph-name="two" unicode="2" horiz-adv-x="896" 
d="M795 5l10 62h-631q14 27 19.5 37t18 28t26 27t34.5 24t54 29.5t74 32.5t104 44q16 6 151 55l15 5q45 15 78 29q145 62 163 170q7 44 -16.5 84.5t-70.5 67.5q-93 52 -242 52q-163 0 -386 -71l14 -51q212 63 370 63q195 0 246 -80q19 -29 14 -66q-14 -83 -153 -124
q-23 -7 -65.5 -24.5t-53.5 -21.5q-6 -2 -28 -9q-155 -57 -235 -98q-183 -94 -230 -265h720z" />
    <glyph glyph-name="three" unicode="3" horiz-adv-x="713" 
d="M165 75l-42 -53q76 -14 157 -14q150 0 258 52q55 26 91 67.5t44 86.5q8 51 -20.5 95t-88.5 72q-32 15 -111 41l-36 12l321 309h-547l-8 -46h428l-308 -301l119 -32q4 -1 23 -6t28 -7.5t28 -8.5t29.5 -11.5t26.5 -14t24 -17.5t16.5 -20.5t11 -25.5t-0.5 -30
q-10 -64 -83 -111q-72 -46 -230 -46q-64 0 -130 9z" />
    <glyph glyph-name="four" unicode="4" horiz-adv-x="870" 
d="M423 743l-302 -443l-15 -92l514 -1l-32 -203l63 1l32 205h147l9 54h-147l76 480zM629 263l-455 1l277 425l245 -1z" />
    <glyph glyph-name="five" unicode="5" horiz-adv-x="714" 
d="M78 32q78 -24 203 -24q149 0 259 52q55 26 91 67t43 86q2 22 1 37q-1 6 -8 39q0 1 -1 3l-1 8l-4 6q-27 50 -85.5 74.5t-129.5 24.5h-247l46 292h449l8 45h-509l-61 -380h67h113q79 0 101 -2q117 -4 152 -25q29 -18 44 -49t10 -63q-10 -63 -84 -111q-72 -46 -258 -46
q-96 0 -143 10l-47 10z" />
    <glyph glyph-name="six" unicode="6" horiz-adv-x="869" 
d="M229 54q85 -59 206 -59q85 0 166.5 32.5t140.5 88.5q77 76 93 166q22 141 -104 229q-40 28 -111.5 47t-122.5 10l-69 -11l183 175l-80 -2l-317 -281q-77 -74 -91 -164q-11 -68 17 -128t89 -103zM192 283q11 70 68 125t126 81t132 26q82 0 146 -43q59 -34 85.5 -83
t17.5 -104q-11 -70 -66.5 -125.5t-124.5 -82.5t-132 -27t-124 26.5t-100 81.5t-28 125z" />
    <glyph glyph-name="seven" unicode="7" horiz-adv-x="812" 
d="M266 5h59q15 80 39.5 146.5t51 112t62.5 86t66 65t70 52.5l37 26q9 6 25.5 17.5t20.5 13.5q45 32 72 60q62 62 86 157h-665l-7 -45h586l-14 -33q-1 -2 -2 -5t-2 -4q-3 -9 -8 -19q-17 -33 -130 -113q-16 -11 -57 -36q-18 -12 -33 -21q-111 -91 -160.5 -188.5t-96.5 -271.5
z" />
    <glyph glyph-name="eight" unicode="8" horiz-adv-x="697" 
d="M113 214q-16 -97 56.5 -157t178.5 -60q65 0 127 24.5t107 66.5q60 57 70 121q16 103 -71 165l-50 37l34 27q46 38 67 64.5t27 64.5q12 78 -46.5 127.5t-144.5 49.5q-53 0 -107 -21q-55 -20 -95 -63t-48 -89q-6 -39 7 -68t45 -64l23 -27l-34 -21q-66 -42 -101.5 -81.5
t-44.5 -95.5zM599 569q-9 -57 -69 -95.5t-113 -38.5q-51 0 -99.5 39t-39.5 94q9 56 67.5 91t114.5 35q53 0 100 -35.5t39 -89.5zM234 313q106 75 177 75q69 0 130.5 -52t49.5 -125q-12 -74 -88 -119.5t-148 -45.5q-71 0 -132.5 47t-49.5 120q7 51 61 100z" />
    <glyph glyph-name="nine" unicode="9" horiz-adv-x="869" 
d="M756 677q-85 59 -206 59q-85 0 -168 -32t-140 -89q-78 -77 -92 -166q-22 -141 104 -229q39 -28 111 -47t123 -10l69 11l-183 -175l80 2l317 281q77 74 91 164q11 68 -17 128t-89 103zM793 448q-11 -70 -68 -125t-126 -81t-132 -26q-72 0 -146 43q-59 34 -85.5 83
t-17.5 104q11 70 66.5 125.5t124.5 82.5t132 27t123.5 -26.5t100 -81.5t28.5 -125z" />
    <glyph glyph-name="colon" unicode=":" horiz-adv-x="300" 
d="M188 462h-115l-12 -78h114zM127 78h-115l-12 -78h115z" />
    <glyph glyph-name="semicolon" unicode=";" horiz-adv-x="282" 
d="M170 462h-114l-13 -78h115zM102 43l5 34h-112l-5 -34q-13 -80 -80 -142q-20 -20 -62 -50q-4 -3 -40 -28l53 -52q13 9 46.5 33t51.5 37q126 91 143 202z" />
    <glyph glyph-name="less" unicode="&#x3c;" horiz-adv-x="428" 
d="M231 316l202 148l-60 58l-281 -206l216 -207l78 57z" />
    <glyph glyph-name="equal" unicode="=" horiz-adv-x="574" 
d="M585 490h-465l-10 -63h465zM552 277h-466l-10 -61h466z" />
    <glyph glyph-name="greater" unicode="&#x3e;" horiz-adv-x="428" 
d="M410 316l-216 206l-78 -58l157 -148l-205 -150l61 -57z" />
    <glyph glyph-name="question" unicode="?" horiz-adv-x="722" 
d="M84 692l17 -66q85 26 145 40q93 22 166 22q35 0 65 -7t56 -23.5t38 -47.5t5 -74q-6 -34 -30 -58q-27 -26 -94 -46q-19 -6 -51.5 -15t-39.5 -11q-153 -47 -196 -130h124q16 23 45 46q28 21 80 38q16 5 44.5 11.5t34.5 8.5q91 24 139.5 55.5t59.5 99.5q9 60 -12 104t-65 68
t-96 35t-112 11q-168 0 -323 -61zM128 76l-12 -76h109l12 76h-109z" />
    <glyph glyph-name="at" unicode="@" horiz-adv-x="902" 
d="M902 431q26 167 -67 260t-262 93q-177 0 -297 -115t-149 -299q-31 -191 72.5 -303t295.5 -112q48 0 106.5 13t99.5 36l-15 38q-72 -34 -183 -34q-163 0 -249 98t-60 264q25 155 124 259t249 104q135 0 212 -81.5t55 -220.5q-17 -113 -113 -167l-34 -18l-33 -17l45 288
h-61l-9 -58l-29 26q-46 43 -90 43q-59 0 -106.5 -47.5t-57.5 -111.5q-11 -67 21 -113.5t94 -46.5q29 0 50 10l8 3l8 -2q54 -19 108 -19q103 0 177 63t90 167zM412 369q7 43 42 76t78 33q44 0 68 -33t18 -77q-7 -43 -42 -77t-79 -34q-43 0 -67.5 35t-17.5 77z" />
    <glyph glyph-name="A" unicode="A" horiz-adv-x="900" 
d="M509 767l-441 -767h91l103 189h429l50 -189h91l-229 767h-94zM665 258h-368l253 446z" />
    <glyph glyph-name="B" unicode="B" horiz-adv-x="825" 
d="M572 748h-385l-119 -748h442q95 0 166.5 55t86.5 149q9 54 -12.5 102.5t-85.5 73.5q49 26 79 70t38 94q15 95 -47.5 149.5t-162.5 54.5zM204 413l43 271h315q58 0 110 -37.5t42 -100.5q-11 -67 -61 -100t-118 -33h-331zM525 72h-375l42 264h372q58 0 97.5 -35.5
t29.5 -96.5q-8 -52 -43 -85t-84 -41q-3 0 -9 -2t-9 -2q-14 -2 -21 -2z" />
    <glyph glyph-name="C" unicode="C" horiz-adv-x="919" 
d="M860 64l-56 55q-115 -70 -256 -70q-66 0 -131 21.5t-118 59.5t-80.5 100t-15.5 135q15 95 90.5 173.5t171 118t185.5 39.5q118 0 232 -74l71 47q-125 94 -292 94q-94 0 -190 -34q-129 -45 -227.5 -144t-117.5 -220q-18 -113 41 -204t163 -138q97 -43 207 -43
q183 0 323 84z" />
    <glyph glyph-name="D" unicode="D" horiz-adv-x="902" 
d="M496 748h-309l-119 -748h309q111 0 221 44t193.5 132.5t101.5 200.5q25 151 -90 259q-115 112 -307 112zM389 78h-228l94 593h228q93 0 173 -38.5t123.5 -107t30.5 -148.5q-11 -71 -56 -129.5t-106.5 -94.5t-128.5 -55.5t-130 -19.5z" />
    <glyph glyph-name="E" unicode="E" horiz-adv-x="787" 
d="M828 685l11 65h-654l-119 -752h664l10 66l-585 1l44 275h392l11 68l-392 1l43 276h575z" />
    <glyph glyph-name="F" unicode="F" horiz-adv-x="787" 
d="M828 685l11 65h-654l-119 -752h79l54 342h392l11 68l-392 1l43 276h575z" />
    <glyph glyph-name="G" unicode="G" 
d="M650 405l-10 -65h356q-26 -91 -98.5 -157t-161.5 -97t-184 -34q-65 -2 -131 19t-120 59.5t-82 101.5t-16 138t60 139t114.5 104t139.5 62.5t139 22.5q155 0 239 -71l74 36q-116 99 -304 99q-108 0 -209 -37q-126 -46 -218 -140.5t-111 -214.5q-19 -118 43.5 -210.5
t173.5 -137.5q92 -39 197 -39q107 0 212 39q125 45 217.5 137.5t111.5 210.5l5 35h-437z" />
    <glyph glyph-name="H" unicode="H" horiz-adv-x="852" 
d="M194 345h576l-55 -345h68l119 748l-68 1l-53 -331h-576l54 331h-72l-119 -749h72z" />
    <glyph glyph-name="I" unicode="I" horiz-adv-x="228" 
d="M267 749h-69l-119 -749h69z" />
    <glyph glyph-name="J" unicode="J" horiz-adv-x="854" 
d="M197 309h-80l-7 -44q-19 -118 68 -203q90 -87 244 -87t273 87q115 86 133 203l75 483h-74l-73 -465q-10 -60 -45 -108t-82.5 -75.5t-98 -42t-97.5 -14.5q-50 0 -102 19t-85 52q-69 69 -53 169z" />
    <glyph glyph-name="K" unicode="K" horiz-adv-x="849" 
d="M781 1l-185 384l289 362h-80l-256 -319h-344l50 319h-69l-118 -746h69l56 355l339 1l173 -357z" />
    <glyph glyph-name="L" unicode="L" horiz-adv-x="691" 
d="M264 748h-77l-119 -748h555l11 67h-477z" />
    <glyph glyph-name="M" unicode="M" horiz-adv-x="1273" 
d="M1207 748l-2 -748h-81l10 680l-444 -680h-107l-228 680l-206 -680h-81l234 748h105l239 -693l456 693h105z" />
    <glyph glyph-name="N" unicode="N" horiz-adv-x="881" 
d="M930 748l-70 1l-109 -685l-468 684h-97l-118 -748h74l104 671l457 -671h109z" />
    <glyph glyph-name="O" unicode="O" 
d="M749 20q126 45 220 138.5t113 211.5q19 124 -47.5 221t-184.5 140q-88 32 -185 32q-95 0 -193 -32q-131 -44 -228.5 -140.5t-116.5 -220.5q-19 -118 45.5 -211.5t175.5 -138.5q90 -36 193 -36q110 0 208 36zM654 692q67 0 132.5 -22t118 -61t80 -102t16.5 -137
q-12 -74 -59.5 -136t-113 -100t-137.5 -58.5t-138 -20.5q-53 0 -105.5 12.5t-100 39t-81.5 63t-50.5 88.5t-6.5 112q15 98 90 174t169 112t186 36z" />
    <glyph glyph-name="P" unicode="P" horiz-adv-x="777" 
d="M552 748h-365l-119 -748h79l48 303h287q56 0 112 21q72 27 130.5 83t68.5 120q10 63 -28 118t-100 81q-51 22 -113 22zM206 375l48 301h287q41 0 81 -15t68 -50.5t20 -83.5q-11 -71 -79.5 -111t-137.5 -40z" />
    <glyph glyph-name="Q" unicode="Q" horiz-adv-x="1096" 
d="M960 5l78 58l-81 82l15 16q92 99 110 209q25 159 -94 275q-119 118 -319 118t-361 -118q-157 -117 -181 -275q-26 -154 95 -270q122 -116 324 -116q172 0 319 91l14 9zM654 692q67 0 132.5 -22t118 -61t80 -102t16.5 -137q-12 -74 -59.5 -136t-113 -100t-137.5 -58.5
t-138 -20.5q-53 0 -105.5 12.5t-100 39t-81.5 63t-50.5 88.5t-6.5 112q15 98 90 174t169 112t186 36z" />
    <glyph glyph-name="R" unicode="R" horiz-adv-x="798" 
d="M729 0h-97l-153 303h-285l-48 -303h-78l118 748h365q63 0 114 -22q61 -26 99 -81t28 -118q-10 -64 -68 -120.5t-130 -82.5q-16 -6 -33 -11zM253 676l-48 -301l289 1q68 0 136.5 40t79.5 111q8 48 -20 83.5t-68 50.5t-82 15h-287z" />
    <glyph glyph-name="S" unicode="S" horiz-adv-x="968" 
d="M531 -15q-135 0 -232 16t-202 61l22 76q193 -88 368 -88q161 0 228 21q53 17 93 54.5t49 93.5q8 48 -20 78t-73 42q-40 11 -128 14q-54 2 -70 2q-129 0 -195 9q-50 6 -77 11.5t-60.5 22t-54.5 42.5q-50 66 -9 152t137 132q117 55 326 55q166 0 322 -49l-37 -66
q-180 53 -303 53q-61 0 -153.5 -16.5t-142.5 -41.5q-31 -16 -56 -44.5t-31 -62.5q-6 -40 9 -64q17 -27 63 -38q120 -27 187 -27q49 0 149 -2q136 -2 211 -44q99 -55 83 -155q-2 -15 -3 -16q-66 -221 -400 -221z" />
    <glyph glyph-name="T" unicode="T" horiz-adv-x="840" 
d="M880 682l10 66h-703l-11 -66l317 -1l-108 -681h74l108 681z" />
    <glyph glyph-name="U" unicode="U" horiz-adv-x="858" 
d="M833 269l76 484h-74l-74 -467q-9 -55 -39 -98.5t-67 -68t-81.5 -40.5t-78 -21.5t-59.5 -5.5q-49 0 -102.5 19t-89.5 50q-70 61 -54 165l73 467h-76l-76 -484q-20 -120 69 -204q91 -88 244 -88q158 0 274 87q116 88 135 205z" />
    <glyph glyph-name="V" unicode="V" horiz-adv-x="929" 
d="M270 751h-83l224 -751h104l464 751h-80l-424 -685z" />
    <glyph glyph-name="W" unicode="W" horiz-adv-x="1335" 
d="M1313 749h73l-399 -754h-89l-128 655l-335 -655h-90l-158 754h73l145 -676l347 676h68l134 -676z" />
    <glyph glyph-name="X" unicode="X" horiz-adv-x="802" 
d="M416 400l-349 -406h90l302 357l189 -357h85l-221 406l336 352h-92l-282 -303l-191 303h-89z" />
    <glyph glyph-name="Y" unicode="Y" horiz-adv-x="915" 
d="M512 340l-236 416h-88l275 -487l-44 -278h75l44 279l429 486h-88z" />
    <glyph glyph-name="Z" unicode="Z" horiz-adv-x="797" 
d="M205 62l607 690h-620l-10 -64h495l-610 -692h661l11 66h-534z" />
    <glyph glyph-name="bracketleft" unicode="[" horiz-adv-x="376" 
d="M142 900l-166 -1050h297l11 65h-182l146 919h181l11 66h-298z" />
    <glyph glyph-name="backslash" unicode="\" horiz-adv-x="542" 
d="M141 900l269 -1050h109l-269 1050h-109z" />
    <glyph glyph-name="bracketright" unicode="]" horiz-adv-x="444" 
d="M273 -150l167 1050h-298l-10 -66h182l-146 -919h-181l-11 -65h297z" />
    <glyph glyph-name="underscore" unicode="_" horiz-adv-x="695" 
d="M556 49h-548l-8 -49h548z" />
    <glyph glyph-name="a" unicode="a" horiz-adv-x="900" 
d="M509 767l-441 -767h91l103 189h429l50 -189h91l-229 767h-94zM665 258h-368l253 446z" />
    <glyph glyph-name="b" unicode="b" horiz-adv-x="800" 
d="M572 748h-385l-119 -748h442q95 0 166.5 55t86.5 149q9 54 -12.5 102.5t-85.5 73.5q49 26 79 70t38 94q15 95 -47.5 149.5t-162.5 54.5zM204 413l43 271h315q58 0 110 -37.5t42 -100.5q-11 -67 -61 -100t-118 -33h-331zM525 72h-375l42 264h372q58 0 97.5 -35.5
t29.5 -96.5q-8 -52 -43 -85t-84 -41q-3 0 -9 -2t-9 -2q-14 -2 -21 -2z" />
    <glyph glyph-name="c" unicode="c" horiz-adv-x="919" 
d="M860 64l-56 55q-115 -70 -256 -70q-66 0 -131 21.5t-118 59.5t-80.5 100t-15.5 135q15 95 90.5 173.5t171 118t185.5 39.5q118 0 232 -74l71 47q-125 94 -292 94q-94 0 -190 -34q-129 -45 -227.5 -144t-117.5 -220q-18 -113 41 -204t163 -138q97 -43 207 -43
q183 0 323 84z" />
    <glyph glyph-name="d" unicode="d" horiz-adv-x="902" 
d="M496 748h-309l-119 -748h309q111 0 221 44t193.5 132.5t101.5 200.5q25 151 -90 259q-115 112 -307 112zM389 78h-228l94 593h228q93 0 173 -38.5t123.5 -107t30.5 -148.5q-11 -71 -56 -129.5t-106.5 -94.5t-128.5 -55.5t-130 -19.5z" />
    <glyph glyph-name="e" unicode="e" horiz-adv-x="796" 
d="M828 685l11 65h-654l-119 -752h664l10 66l-585 1l44 275h392l11 68l-392 1l43 276h575z" />
    <glyph glyph-name="f" unicode="f" horiz-adv-x="787" 
d="M828 685l11 65h-654l-119 -752h79l54 342h392l11 68l-392 1l43 276h575z" />
    <glyph glyph-name="g" unicode="g" 
d="M650 405l-10 -65h356q-26 -91 -98.5 -157t-161.5 -97t-184 -34q-65 -2 -131 19t-120 59.5t-82 101.5t-16 138t60 139t114.5 104t139.5 62.5t139 22.5q155 0 239 -71l74 36q-116 99 -304 99q-108 0 -209 -37q-126 -46 -218 -140.5t-111 -214.5q-19 -118 43.5 -210.5
t173.5 -137.5q92 -39 197 -39q107 0 212 39q125 45 217.5 137.5t111.5 210.5l5 35h-437z" />
    <glyph glyph-name="h" unicode="h" horiz-adv-x="852" 
d="M194 345h576l-55 -345h68l119 748l-68 1l-53 -331h-576l54 331h-72l-119 -749h72z" />
    <glyph glyph-name="i" unicode="i" horiz-adv-x="234" 
d="M267 749h-69l-119 -749h69z" />
    <glyph glyph-name="j" unicode="j" horiz-adv-x="854" 
d="M197 309h-80l-7 -44q-19 -118 68 -203q90 -87 244 -87t273 87q115 86 133 203l75 483h-74l-73 -465q-10 -60 -45 -108t-82.5 -75.5t-98 -42t-97.5 -14.5q-50 0 -102 19t-85 52q-69 69 -53 169z" />
    <glyph glyph-name="k" unicode="k" horiz-adv-x="849" 
d="M781 1l-185 384l289 362h-80l-256 -319h-344l50 319h-69l-118 -746h69l56 355l339 1l173 -357z" />
    <glyph glyph-name="l" unicode="l" horiz-adv-x="691" 
d="M264 748h-77l-119 -748h555l11 67h-477z" />
    <glyph glyph-name="m" unicode="m" horiz-adv-x="1273" 
d="M1207 748l-2 -748h-81l10 680l-444 -680h-107l-228 680l-206 -680h-81l234 748h105l239 -693l456 693h105z" />
    <glyph glyph-name="n" unicode="n" horiz-adv-x="881" 
d="M930 748l-70 1l-109 -685l-468 684h-97l-118 -748h74l104 671l457 -671h109z" />
    <glyph glyph-name="o" unicode="o" 
d="M749 20q126 45 220 138.5t113 211.5q19 124 -47.5 221t-184.5 140q-88 32 -185 32q-95 0 -193 -32q-131 -44 -228.5 -140.5t-116.5 -220.5q-19 -118 45.5 -211.5t175.5 -138.5q90 -36 193 -36q110 0 208 36zM654 692q67 0 132.5 -22t118 -61t80 -102t16.5 -137
q-12 -74 -59.5 -136t-113 -100t-137.5 -58.5t-138 -20.5q-53 0 -105.5 12.5t-100 39t-81.5 63t-50.5 88.5t-6.5 112q15 98 90 174t169 112t186 36z" />
    <glyph glyph-name="p" unicode="p" horiz-adv-x="777" 
d="M552 748h-365l-119 -748h79l48 303h287q56 0 112 21q72 27 130.5 83t68.5 120q10 63 -28 118t-100 81q-51 22 -113 22zM206 375l48 301h287q41 0 81 -15t68 -50.5t20 -83.5q-11 -71 -79.5 -111t-137.5 -40z" />
    <glyph glyph-name="q" unicode="q" horiz-adv-x="1096" 
d="M960 5l78 58l-81 82l15 16q92 99 110 209q25 159 -94 275q-119 118 -319 118t-361 -118q-157 -117 -181 -275q-26 -154 95 -270q122 -116 324 -116q172 0 319 91l14 9zM654 692q67 0 132.5 -22t118 -61t80 -102t16.5 -137q-12 -74 -59.5 -136t-113 -100t-137.5 -58.5
t-138 -20.5q-53 0 -105.5 12.5t-100 39t-81.5 63t-50.5 88.5t-6.5 112q15 98 90 174t169 112t186 36z" />
    <glyph glyph-name="r" unicode="r" horiz-adv-x="798" 
d="M729 0h-97l-153 303h-285l-48 -303h-78l118 748h365q63 0 114 -22q61 -26 99 -81t28 -118q-10 -64 -68 -120.5t-130 -82.5q-16 -6 -33 -11zM253 676l-48 -301l289 1q68 0 136.5 40t79.5 111q8 48 -20 83.5t-68 50.5t-82 15h-287z" />
    <glyph glyph-name="s" unicode="s" horiz-adv-x="968" 
d="M531 -15q-135 0 -232 16t-202 61l22 76q193 -88 368 -88q161 0 228 21q53 17 93 54.5t49 93.5q8 48 -20 78t-73 42q-40 11 -128 14q-54 2 -70 2q-129 0 -195 9q-50 6 -77 11.5t-60.5 22t-54.5 42.5q-50 66 -9 152t137 132q117 55 326 55q166 0 322 -49l-37 -66
q-180 53 -303 53q-61 0 -153.5 -16.5t-142.5 -41.5q-31 -16 -56 -44.5t-31 -62.5q-6 -40 9 -64q17 -27 63 -38q120 -27 187 -27q49 0 149 -2q136 -2 211 -44q99 -55 83 -155q-2 -15 -3 -16q-66 -221 -400 -221z" />
    <glyph glyph-name="t" unicode="t" horiz-adv-x="840" 
d="M880 682l10 66h-703l-11 -66l317 -1l-108 -681h74l108 681z" />
    <glyph glyph-name="u" unicode="u" horiz-adv-x="858" 
d="M833 269l76 484h-74l-74 -467q-9 -55 -39 -98.5t-67 -68t-81.5 -40.5t-78 -21.5t-59.5 -5.5q-49 0 -102.5 19t-89.5 50q-70 61 -54 165l73 467h-76l-76 -484q-20 -120 69 -204q91 -88 244 -88q158 0 274 87q116 88 135 205z" />
    <glyph glyph-name="v" unicode="v" horiz-adv-x="929" 
d="M270 751h-83l224 -751h104l464 751h-80l-424 -685z" />
    <glyph glyph-name="w" unicode="w" horiz-adv-x="1335" 
d="M1313 749h73l-399 -754h-89l-128 655l-335 -655h-90l-158 754h73l145 -676l347 676h68l134 -676z" />
    <glyph glyph-name="x" unicode="x" horiz-adv-x="802" 
d="M416 400l-349 -406h90l302 357l189 -357h85l-221 406l336 352h-92l-282 -303l-191 303h-89z" />
    <glyph glyph-name="y" unicode="y" horiz-adv-x="915" 
d="M512 340l-236 416h-88l275 -487l-44 -278h75l44 279l429 486h-88z" />
    <glyph glyph-name="z" unicode="z" horiz-adv-x="797" 
d="M205 62l607 690h-620l-10 -64h495l-610 -692h661l11 66h-534z" />
    <glyph glyph-name="bar" unicode="|" horiz-adv-x="239" 
d="M232 904h-89l-167 -1058h88z" />
    <glyph glyph-name="asciitilde" unicode="~" horiz-adv-x="662" 
d="M360 340q56 -16 110 -16q99 0 187 71l-72 53q-58 -45 -108 -45q-20 0 -45 5q-28 6 -41 10l-61 13q-30 6 -61 6q-87 0 -166 -54l76 -51q49 26 94 26q16 0 46 -6z" />
    <glyph glyph-name="uni00A0" unicode="&#xa0;" horiz-adv-x="0" 
 />
    <glyph glyph-name="exclamdown" unicode="&#xa1;" horiz-adv-x="280" 
d="M233 748h-114l-13 -78h115zM190 476h-115l-75 -476h115z" />
    <glyph glyph-name="cent" unicode="&#xa2;" horiz-adv-x="754" 
d="M731 283h-103l-3 -7q-23 -52 -65.5 -92t-95.5 -60q-5 -2 -15 -5.5t-15 -5.5l-30 -10l86 538l25 -10q66 -25 98.5 -63t42.5 -107h104q-7 105 -64.5 173t-158.5 87l-34 5l42 267h-60l-43 -270l-34 -7q-122 -27 -204.5 -121.5t-102.5 -221.5q-20 -129 32 -224t166 -122
l32 -7l-44 -275h61l43 273l36 5q107 18 185 86t119 174zM364 609l33 15l32 15l-85 -537l-27 17q-16 8 -28 16q-58 35 -79.5 98.5t-9.5 139.5q12 75 53.5 138.5t110.5 97.5z" />
    <glyph glyph-name="sterling" unicode="&#xa3;" horiz-adv-x="774" 
d="M643 673l139 23q0 37 -5 62q-35 167 -230 167q-21 0 -61 -8q-140 -23 -191 -95q-61 -89 -72 -162q-11 -67 -2 -165l2 -26h-107l-17 -110h137l-9 -62q-12 -78 -57 -137t-117 -113l33 -132q88 52 163 52q36 0 79 -10q24 -5 72 -21q91 -29 139 -29q67 0 159 39l-35 126
q-78 -31 -128 -31q-27 0 -53 6q-37 9 -49 13q-62 18 -92 18q-17 0 -78 -7l-45 -4l32 37q65 76 85 113.5t37 121.5l3 20h170l18 110h-198l-2 15q-17 110 -6 173q9 64 55.5 110t110.5 46q112 0 120 -140z" />
    <glyph glyph-name="yen" unicode="&#xa5;" horiz-adv-x="743" 
d="M95 222l-17 -105h232l-28 -179h132l28 179h232l16 105h-231l19 123h232l16 105h-174l260 419h-145q-162 -264 -209 -344l-25 -44l-12 44q-21 79 -98 344h-143l125 -419h-174l-17 -105h232l-19 -123h-232z" />
    <glyph glyph-name="copyright" unicode="&#xa9;" horiz-adv-x="993" 
d="M329 63q84 -28 168 -28q92 0 177 32q108 40 179.5 124t71.5 191q0 106 -71.5 189.5t-179.5 123.5q-85 32 -177 32q-84 0 -168 -28q-111 -38 -186 -123t-75 -194t75 -194.5t186 -124.5zM122 382q0 73 35 133.5t91 97.5t120.5 57.5t128.5 20.5t128.5 -20.5t120 -57.5
t90.5 -97.5t35 -133.5q0 -98 -64.5 -172.5t-157.5 -108.5q-73 -27 -152 -27t-153 27q-93 34 -157.5 108.5t-64.5 172.5zM647 259l-43 36q-44 -33 -103 -33q-55 0 -100 32.5t-45 91.5q0 55 47 89t98 34q30 0 61 -12q17 -7 40 -18l42 29q-64 50 -143 50q-93 0 -152 -55
q-25 -24 -41.5 -55.5t-16.5 -61.5q0 -75 64 -121.5t146 -46.5q37 0 78.5 11t67.5 30z" />
    <glyph glyph-name="registered" unicode="&#xae;" horiz-adv-x="992" 
d="M317 66q87 -32 178 -32q92 0 177 32q108 39 179.5 122.5t71.5 189.5q0 110 -74.5 195.5t-186.5 123.5q-78 28 -167 28q-88 0 -168 -28q-111 -38 -185 -123.5t-74 -195.5q0 -106 71 -189.5t178 -122.5zM121 378q0 58 23 109t61.5 87.5t87 62.5t100.5 39t102 13t102 -12.5
t101 -38.5t87 -62.5t61 -87.5t23 -110q0 -97 -64.5 -171t-157.5 -108q-73 -27 -152 -27t-151 27q-93 35 -158 109t-65 170zM578 231h70l-91 127l26 9q31 11 50.5 34.5t19.5 53.5q0 39 -35.5 69.5t-77.5 30.5h-195v-324h68v126h78zM570 496q22 -16 22 -41q0 -30 -21 -44.5
t-45 -14.5h-113v116h113q24 0 44 -16z" />
    <glyph glyph-name="degree" unicode="&#xb0;" horiz-adv-x="541" 
d="M511 650q11 71 -45 117.5t-134 46.5t-149.5 -46.5t-82.5 -117.5t45.5 -117.5t134.5 -46.5t149 46.5t82 117.5zM440 650q-8 -53 -56 -83t-96 -30q-47 0 -85 30.5t-30 82.5t55.5 82t95.5 30t86 -30t30 -82z" />
    <glyph glyph-name="acute" unicode="&#xb4;" horiz-adv-x="293" 
d="M153 949h92l136 122h-114z" />
    <glyph glyph-name="periodcentered" unicode="&#xb7;" horiz-adv-x="229" 
d="M126 391h-64l-8 -49h65z" />
    <glyph glyph-name="questiondown" unicode="&#xbf;" horiz-adv-x="722" 
d="M235 747l-12 -75h108l12 75h-108zM21 121l-38 -66q136 -61 304 -61q60 0 115.5 11t107 35t86.5 68t45 104q13 84 -63 124q-31 15 -80 29q-10 3 -40 11.5t-44 13.5q-44 15 -63 36q-19 19 -31 45h-124q15 -83 154 -130q9 -3 38.5 -11.5t45.5 -13.5q59 -20 79 -47
q17 -22 11 -58q-13 -81 -73.5 -116t-137.5 -35q-78 0 -160 21q-27 7 -132 40z" />
    <glyph glyph-name="multiply" unicode="&#xd7;" horiz-adv-x="501" 
d="M128 540l128 -167l-182 -169l33 -44l184 169l127 -169l48 44l-131 169l184 167l-34 43l-180 -166l-131 166z" />
    <glyph glyph-name="divide" unicode="&#xf7;" horiz-adv-x="560" 
d="M367 626q-28 0 -48.5 -18.5t-25.5 -47.5q-4 -28 11 -46.5t42 -18.5t48.5 18.5t25.5 46.5q5 28 -10.5 47t-42.5 19zM560 423h-451l-15 -94h452zM309 260q-27 0 -48 -19t-26 -48t10 -47.5t43 -18.5q26 0 47.5 19.5t26.5 46.5q4 28 -11.5 47.5t-41.5 19.5z" />
    <glyph glyph-name="circumflex" unicode="&#x2c6;" horiz-adv-x="515" 
d="M469 1068h-180l-144 -154h131l102 104l58 -104h129z" />
    <glyph glyph-name="caron" unicode="&#x2c7;" horiz-adv-x="489" 
d="M300 1068h-130l95 -154h173l152 154h-127l-93 -104z" />
    <glyph glyph-name="tilde" unicode="&#x2dc;" horiz-adv-x="637" 
d="M414 928q54 -17 109 -17q98 0 188 72l-72 52q-56 -45 -107 -45q-16 0 -46 6q-24 5 -41 10q-9 2 -29.5 6.5t-31.5 6.5q-30 6 -61 6q-90 0 -166 -55l76 -51q44 26 94 26q21 0 46 -5q8 -2 23 -6.5t18 -5.5z" />
    <glyph glyph-name="endash" unicode="&#x2013;" horiz-adv-x="695" 
d="M610 391h-548l-8 -49h549z" />
    <glyph glyph-name="emdash" unicode="&#x2014;" horiz-adv-x="1151" 
d="M1064 391h-1002l-8 -49h1002z" />
    <glyph glyph-name="quoteleft" unicode="&#x2018;" horiz-adv-x="402" 
d="M99 628l-5 -33h101l5 33q13 78 81 142q28 27 62 51q6 5 20 14.5t20 14.5l-53 50q-12 -8 -46 -31.5t-52 -37.5q-114 -84 -133 -203z" />
    <glyph glyph-name="quoteright" unicode="&#x2019;" horiz-adv-x="403" 
d="M388 876l5 36h-102l-5 -36q-13 -77 -81 -142q-19 -18 -61 -50l-40 -28l53 -52q16 12 49 35t49 35q114 84 133 202z" />
    <glyph glyph-name="quotesinglbase" unicode="&#x201a;" horiz-adv-x="269" 
d="M102 43l5 34h-112l-5 -34q-13 -80 -80 -142q-20 -20 -62 -50q-4 -3 -40 -28l53 -52q13 9 46.5 33t51.5 37q126 91 143 202z" />
    <glyph glyph-name="quotedblleft" unicode="&#x201c;" horiz-adv-x="623" 
d="M7 627l-5 -34h114l5 34q11 73 77 140q28 29 60 51q6 5 38 29l-55 54q-67 -42 -109 -75.5t-78.5 -85.5t-46.5 -113zM384 627l-5 -34h113l5 34q13 79 80 143q25 24 62 49q8 6 40 29l-53 51q-16 -12 -49 -35t-50 -35q-127 -92 -143 -202z" />
    <glyph glyph-name="quotedblright" unicode="&#x201d;" horiz-adv-x="623" 
d="M234 876l6 36h-113l-5 -36q-13 -77 -81 -142q-19 -18 -61 -50l-40 -28l53 -52q16 12 49 35t49 35q127 93 143 202zM612 876l5 36h-113l-6 -36q-10 -68 -78 -142q-25 -26 -60 -56l-38 -32l54 -52q32 26 98 74q119 91 138 208z" />
    <glyph glyph-name="quotedblbase" unicode="&#x201e;" horiz-adv-x="627" 
d="M102 43l5 34h-112l-5 -34q-13 -80 -80 -142q-20 -20 -62 -50q-4 -3 -40 -28l53 -52q13 9 46.5 33t51.5 37q126 91 143 202zM480 43l5 34h-114l-5 -34q-11 -71 -70 -133q-41 -43 -107 -97l54 -53q7 5 43 32t55 42q120 90 139 209z" />
    <glyph glyph-name="bullet" unicode="&#x2022;" horiz-adv-x="323" 
d="M262 393q5 30 -23 52.5t-65 22.5q-36 0 -71.5 -22.5t-40.5 -52.5q-4 -31 23.5 -53t64.5 -22q38 0 73 22t39 53z" />
    <glyph glyph-name="ellipsis" unicode="&#x2026;" horiz-adv-x="1002" 
d="M109 78h-97l-12 -78h97zM473 78h-97l-12 -78h97zM837 78h-97l-12 -78h97z" />
    <glyph glyph-name="Euro" unicode="&#x20ac;" horiz-adv-x="953" 
d="M894 56l-91 93q-103 -108 -236 -108q-100 0 -161 58t-77 156q-2 18 -4 29l-3 27h423l19 122h-423l12 27q7 14 13 29q47 98 126.5 156.5t179.5 58.5q135 0 203 -109l119 92q-102 150 -301 150q-170 0 -301 -106t-187 -280l-6 -18h-88l-20 -122h89v-18q0 -174 98 -280
t268 -106q199 0 348 149z" />
    <glyph glyph-name="trademark" unicode="&#x2122;" horiz-adv-x="1075" 
d="M314 754h-313v-41h117v-278h73v278h123v41zM902 435l-41 319h-90l-114 -281l-118 281h-92l-41 -319h69l26 239l110 -239h88l107 236l33 -236h63z" />
    <glyph glyph-name="_FSHallmark" horiz-adv-x="1134" 
d="M1066 743v-99h-993v99h993zM852 174q-47 0 -80 9q-37 9 -70 29q-34 20 -52 47q-18 26 -18 65h115q0 -7 4 -16q5 -18 18 -26q14 -11 29 -17q21 -11 57 -11q38 0 64 13q24 11 24 26q0 29 -96 46q-98 24 -142 47q-62 19 -62 82q0 46 40 75q31 23 86 40q30 8 83 8t112 -18
q51 -17 80 -65q12 -27 12 -51h-119q0 11 -9 22q-3 3 -22 18l-28 11q-24 2 -27 2q-38 0 -59 -12q-25 -12 -25 -29q0 -29 22 -41q10 -6 54 -18l79 -16q9 -1 36 -7q22 -2 30 -7q2 -1 11 -4.5t15 -4.5q19 -12 37 -28q10 -20 13 -43q3 -25 -12 -51q-27 -41 -88 -59
q-55 -16 -112 -16zM202 311v-137h-129v416h417v-95h-288v-93h238v-91h-238zM539 176q-21 0 -41 16q-19 12 -19 34q0 20 18 35q18 13 42 13q27 0 47 -15q19 -14 19 -33q0 -20 -19 -36q-23 -14 -47 -14zM1064 123v-100h-996v100h996z" />
    <glyph glyph-name="_Fontastica" horiz-adv-x="854" 
d="M187 311v-167h-117q-2 1 -2 5v580h516v-87h-397v-241h400v-90h-400zM781 729v-584h-520v88h401v239h-401v92h401v165h119zM674 49q-9 0 -21 6q-5 5 -10 19q-1 10 7 18q12 11 24 11q14 0 25 -11l-5 -6l-7 4q-2 2 -10 2h-3q-10 -4 -12 -6q-5 -2 -5 -8q0 -7 5 -14
q6 -4 12 -4t20 4l5 -4q-8 -11 -25 -11zM86 70v-19h-16v50h44v-9h-28v-13h28v-9h-28zM167 48q-8 0 -14 3q-18 7 -18 22q0 13 9 19q7 9 23 9q23 0 30 -13q11 -9 3 -24q-7 -12 -26 -15zM275 49q-2 0 -10 6q0 1 -2 3.5t-3 4.5l-6 7q-12 12 -13 12v-31h-13v50h11q5 0 7 -5l14 -14
q5 -9 11 -15v34h11v-50h-3q-1 -2 -4 -2zM339 92v-41h-12v41h-18v9h49v-9h-19zM486 49q-20 0 -30 8q2 2 2 3v2q0 2 3 2l18 -4h8q4 4 4 3q0 7 -14 10q-1 0 -2 1q0 1 -6 1q-8 0 -8 11q-4 8 8 14q4 1 13 1q17 0 24 -4l-4 -9q-3 1 -5 1t-3 1h-4l-3 2h-8q-4 0 -4 -3q0 -4 4 -7
q5 -1 15 -4q12 -4 12 -12q3 -10 -11 -15q-1 -2 -9 -2zM560 92v-41h-16v41h-17v9h50v-9h-17zM617 101v-50h-15v50h15zM737 62l-4 -11h-13q15 28 23 50h16l13 -23q0 -2 2.5 -7t2.5 -7q7 -12 8 -13h-13l-6 11h-29zM387 53l-3 -2h-12l25 49h13q6 -11 7 -12t7 -13q4 -8 4 -11
l6 -13h-13v4q0 1 -1.5 2.5t-2.5 4.5h-28v-7q-2 0 -2 -2zM167 59q5 0 7 1q11 3 11 15q0 10 -4 13q-10 4 -14 4l-4 -2q-6 0 -11 -8q-9 -5 -2 -12q3 -11 17 -11zM404 89l-11 -19h19q0 5 -2 5q-1 0 -1 3q-1 2 -1 3q-3 0 -3 4q0 3 -1 4zM751 89l-11 -19h21q-2 1 -2 5q-2 0 -2 6
q0 1 -3 4q0 3 -3 4z" />
    </font>
</defs>
</svg>
