<?xml version="1.0" standalone="no"?>
<!DOCTYPE svg PUBLIC "-//W3C//DTD SVG 1.1//EN" "http://www.w3.org/Graphics/SVG/1.1/DTD/svg11.dtd" >
<svg xmlns="http://www.w3.org/2000/svg" xmlns:xlink="http://www.w3.org/1999/xlink" version="1.1">
<metadata>
Created by FontForge 20170731 at Tue Dec  3 19:06:04 2019
 By Aleksey,,,
Copyright (c) 2019 by Fontastica. All rights reserved.
</metadata>
<defs>
<font id="Dublin-LightItalic" horiz-adv-x="1111" >
  <font-face 
    font-family="Dublin Light Italic"
    font-weight="300"
    font-style="italic"
    font-stretch="normal"
    units-per-em="1000"
    panose-1="0 0 4 0 0 0 0 0 0 0"
    ascent="800"
    descent="-200"
    x-height="757"
    cap-height="758"
    bbox="-188 -245 1395 1068"
    underline-thickness="50"
    underline-position="-200"
    unicode-range="U+000D-2122"
  />
<missing-glyph horiz-adv-x="506" 
 />
    <glyph glyph-name=".notdef" horiz-adv-x="506" 
 />
    <glyph glyph-name=".null" horiz-adv-x="0" 
 />
    <glyph glyph-name="nonmarkingreturn" horiz-adv-x="333" 
 />
    <glyph glyph-name="CR" unicode="&#xd;" horiz-adv-x="506" 
 />
    <glyph glyph-name="space" unicode=" " horiz-adv-x="506" 
 />
    <glyph glyph-name="exclam" unicode="!" horiz-adv-x="317" 
d="M120 758l-78 -495h152l78 495h-152zM18 115l-18 -115h152l18 115h-152z" />
    <glyph glyph-name="quotedbl" unicode="&#x22;" horiz-adv-x="829" 
d="M449 914h-151l-9 -54q-13 -75 -87 -137q-30 -25 -64 -47l-38 -26l80 -76q20 15 57.5 40.5t52.5 36.5q132 95 150 209zM817 914h-150l-8 -54q-9 -58 -63 -114q-42 -44 -120 -107l79 -75q42 31 71 54q48 38 83 73q87 87 100 169z" />
    <glyph glyph-name="numbersign" unicode="#" horiz-adv-x="1192" 
d="M1145 566h-183l112 192h-132l-112 -192h-265l112 192h-131l-112 -192h-186l-50 -85h186l-112 -194h-192l-51 -87h192l-116 -200h131l117 200h265l-117 -200h131l117 200h177l51 87h-178l113 194h183zM516 481h265l-113 -194h-265z" />
    <glyph glyph-name="dollar" unicode="$" horiz-adv-x="994" 
d="M316 -144h133l20 129h20q66 1 124 13t113 37t95.5 70.5t58.5 108.5q2 5 4 19q17 109 -90 166q-74 41 -216 45h-16h-20l34 218l23 -3q112 -17 243 -61l56 96q-66 21 -132 39q-4 1 -24.5 7t-31.5 8q-15 3 -31.5 6t-36.5 6.5t-32 5.5l-17 2l22 136h-133l-21 -135l-19 -2
q-63 -6 -119 -21t-110 -42t-90 -72.5t-45 -104.5q-9 -53 29 -99q32 -39 87 -57q31 -10 113 -22q55 -8 66 -8l20 -1l-37 -233l-23 4q-129 22 -283 83l-69 -103q174 -74 339 -95l18 -3zM444 663l-34 -215l-22 1q-6 1 -20.5 2t-29 2.5t-26.5 3.5q-56 11 -72 35q-10 13 -7 49
q5 27 27 50t46 35q25 13 57 21q11 3 31 7l25 5zM487 97l37 236l20 1q33 1 75 -7t68 -21q45 -24 37 -74q-10 -71 -91 -106q-47 -20 -124 -27z" />
    <glyph glyph-name="percent" unicode="%" horiz-adv-x="1209" 
d="M553 579q14 82 -48.5 134t-152.5 52q-89 0 -168.5 -52t-92.5 -134q-14 -82 49.5 -134.5t152.5 -52.5t168 52.5t92 134.5zM138 0h162l768 754h-162zM308 486q-39 0 -70.5 25t-24.5 69q7 43 46.5 68t78.5 25t70.5 -24.5t24.5 -68.5t-46.5 -69t-78.5 -25zM1123 177
q13 83 -50.5 135.5t-153.5 52.5q-89 0 -168 -53t-92 -135q-13 -81 49.5 -133t151.5 -52q90 0 170 51.5t93 133.5zM877 83q-39 0 -70.5 25t-24.5 69t46.5 69t78.5 25t70 -25t24 -69t-46 -69t-78 -25z" />
    <glyph glyph-name="ampersand" unicode="&#x26;" horiz-adv-x="1092" 
d="M990 223l-92 66q-57 -50 -130 -97l-12 -9l-11 8q-101 77 -158 128l-27 24l38 12q72 24 125 77t64 120q0 1 0.5 3t0.5 3q9 98 -63 154.5t-179 56.5q-100 0 -191 -61.5t-106 -155.5q-9 -58 16 -102l12 -23l-28 -9q-13 -4 -41 -14q-22 -7 -39 -16q-115 -58 -131 -155
q-2 -20 -2 -30q0 -63 33 -107.5t89 -66.5t114.5 -31.5t126.5 -9.5q165 0 315 57l11 4l8 -5q13 -10 43.5 -33.5t54 -40.5t45.5 -30l94 89q-51 37 -98 68l-23 15l26 19q63 46 115 92zM526 448q-25 -6 -73 -6h-9l-5 7q-5 6 -16 17l-9 9q-2 2 -5 5.5t-4 5.5q-22 27 -17 66v6
q8 46 53.5 76t87.5 30q49 0 85.5 -29t27.5 -83q-6 -41 -42 -68.5t-74 -35.5zM380 324q117 -100 208 -169l34 -26l-46 -12q-81 -19 -157 -19h-57q-34 2 -58 7q-40 9 -72 34.5t-38 65.5q-2 11 0 23q9 56 78 81q36 14 95 19l7 1z" />
    <glyph glyph-name="quotesingle" unicode="'" horiz-adv-x="450" 
d="M440 914h-139l-9 -54q-13 -75 -87 -137q-30 -25 -64 -47l-38 -26l80 -76q20 15 57.5 40.5t52.5 36.5q119 87 139 209z" />
    <glyph glyph-name="parenleft" unicode="(" horiz-adv-x="442" 
d="M88 -177l141 48q-70 212 -24 510q46 296 185 508l-126 48q-152 -230 -204 -558q-52 -326 28 -556z" />
    <glyph glyph-name="parenright" unicode=")" horiz-adv-x="367" 
d="M-20 -129l125 -48q153 230 205 556q51 325 -29 558l-140 -48q70 -211 24 -509q-49 -300 -185 -509z" />
    <glyph glyph-name="asterisk" unicode="*" horiz-adv-x="604" 
d="M550 463l-163 86l191 87l-26 48l-182 -85l26 161h-75l-25 -160l-155 82l-40 -47l160 -85l-188 -90l28 -45l179 86l-25 -161h74l26 160l155 -83z" />
    <glyph glyph-name="plus" unicode="+" horiz-adv-x="685" 
d="M108 415l-14 -87h231l-30 -188h115l30 188h231l14 87h-231l30 188h-116l-29 -188h-231z" />
    <glyph glyph-name="comma" unicode="," horiz-adv-x="316" 
d="M160 114h-150l-9 -52q-11 -76 -87 -139q-22 -19 -63 -46l-39 -27l80 -75q9 6 49 34t61 43q130 92 149 210z" />
    <glyph glyph-name="hyphen" unicode="-" horiz-adv-x="542" 
d="M66 415l-14 -87h391l14 87h-391z" />
    <glyph glyph-name="period" unicode="." horiz-adv-x="312" 
d="M18 115l-18 -115h135l18 115h-135z" />
    <glyph glyph-name="slash" unicode="/" horiz-adv-x="591" 
d="M124 -144l609 1047h-149l-610 -1047h150z" />
    <glyph glyph-name="zero" unicode="0" 
d="M864 740q-87 31 -188 31t-195 -31q-134 -44 -234 -141.5t-120 -223.5q-19 -120 47.5 -215t180.5 -140q92 -36 197 -36q106 0 209 36q130 45 226.5 139.5t115.5 215.5q20 127 -49 224t-190 141zM965 375q-14 -90 -82 -157.5t-151.5 -98.5t-163.5 -31q-59 0 -116.5 18.5
t-103.5 53t-69.5 91t-12.5 124.5t52 125t98 92.5t120.5 55t123.5 19.5q59 0 117 -19.5t104.5 -55t70.5 -92.5t13 -125z" />
    <glyph glyph-name="one" unicode="1" horiz-adv-x="468" 
d="M246 0h153l119 754h-331l-16 -102h178z" />
    <glyph glyph-name="two" unicode="2" horiz-adv-x="922" 
d="M843 109h-560l22 31q46 67 220 134q47 18 130 46.5t109 39.5q158 66 178 185q8 53 -19.5 97t-77.5 71q-95 53 -247 53q-169 0 -414 -78l28 -94q221 66 376 66q115 0 164 -39q18 -16 27 -29q15 -22 11 -47q-7 -40 -64 -77q-34 -22 -80 -38q-21 -8 -97 -34
q-139 -49 -233 -95q-208 -103 -248 -301h757z" />
    <glyph glyph-name="three" unicode="3" horiz-adv-x="753" 
d="M178 119l-76 -96q95 -20 193 -20q152 0 264 52q58 27 99 72t50 98q9 61 -24.5 108.5t-93.5 74.5q-35 16 -83 31l-29 9l326 310h-616l-15 -94h389l-332 -320h202q19 0 42 -6.5t45.5 -18.5t35 -34.5t8.5 -50.5q-8 -47 -69 -86q-59 -40 -177 -40q-68 0 -139 11z" />
    <glyph glyph-name="four" unicode="4" horiz-adv-x="895" 
d="M118 314l-19 -119h466l-31 -195h149l32 205h144l16 102h-143l71 451h-378zM266 298l248 358h124l-57 -358h-315z" />
    <glyph glyph-name="five" unicode="5" horiz-adv-x="742" 
d="M560 55q58 27 99 71.5t50 98.5q4 28 -8 81l-3 13q-2 6 -4 9q-30 53 -93 80.5t-136 27.5h-173l36 228h396l14 93h-548l-66 -415q34 0 101.5 0.5t100.5 0.5q60 0 97 -2q69 -4 97 -21q21 -13 34.5 -36.5t9.5 -49.5q-8 -47 -69 -86q-61 -40 -176 -40q-51 0 -77 1q-48 2 -78 8
q-13 2 -38 7.5t-37 8.5l-16 -101l21 -7q69 -22 202 -22q150 0 264 52z" />
    <glyph glyph-name="six" unicode="6" horiz-adv-x="894" 
d="M770 112q85 80 101 179q24 151 -112 244q-80 53 -189 59l-44 3l166 155l-165 1q-38 -31 -145 -127q-98 -92 -147 -139q-8 -6 -11 -9q-6 -4 -9 -7q-38 -34 -65.5 -82t-34.5 -95q-12 -76 19 -140t94 -107q90 -62 218 -62q86 0 173 33t151 94zM653 447q38 -26 59.5 -65.5
t13.5 -88.5q-14 -89 -96 -142t-167 -53q-38 0 -76 12.5t-69.5 36t-47.5 61.5t-9 84q9 60 55 105.5t101.5 66.5t107.5 21q72 0 128 -38z" />
    <glyph glyph-name="seven" unicode="7" horiz-adv-x="839" 
d="M202 17l-2 -17h163q18 100 47.5 176.5t71 129t78 84.5t88.5 67q7 5 37 25t46 31q39 27 72 60q66 71 87 183h-702l-15 -93h504l-12 -27q-16 -36 -90 -82q-12 -8 -35.5 -22.5t-30.5 -18.5q-40 -26 -71 -52q-189 -151 -236 -444z" />
    <glyph glyph-name="eight" unicode="8" horiz-adv-x="725" 
d="M614 85q67 64 78 135q9 56 -12.5 104t-66.5 79l-20 15l23 19q71 56 82 127q14 88 -52.5 143.5t-160.5 55.5q-55 0 -116 -21q-60 -22 -106.5 -70.5t-55.5 -104.5q-11 -71 41 -131l16 -17l-23 -15q-120 -76 -136 -179q-17 -106 62 -172t193 -66q68 0 136 25.5t118 72.5z
M438 477q-36 0 -66.5 23t-23.5 65q7 44 44 67.5t76 23.5q36 0 65.5 -24.5t23.5 -65.5q-8 -44 -44.5 -66.5t-74.5 -22.5zM420 352q55 0 98.5 -35t33.5 -94q-10 -61 -64.5 -95t-110.5 -34q-55 0 -98.5 35t-33.5 95q5 39 43 77q55 51 132 51z" />
    <glyph glyph-name="nine" unicode="9" horiz-adv-x="894" 
d="M243 640q-87 -82 -101 -177q-24 -152 112 -246q77 -53 189 -61l43 -3l-165 -153l165 -1q79 66 144 127q24 22 148 138l11 10q6 4 8 6q38 35 66 83.5t35 95.5q14 93 -32.5 164.5t-126 106.5t-172.5 35q-86 0 -173 -32.5t-151 -92.5zM360 303q-38 27 -59.5 67t-13.5 88
q14 89 95.5 142.5t166.5 53.5q86 0 151 -53.5t51 -143.5q-9 -59 -66 -114q-84 -77 -197 -77q-75 0 -128 37z" />
    <glyph glyph-name="colon" unicode=":" horiz-adv-x="337" 
d="M76 483l-18 -115h152l19 115h-153zM18 115l-18 -115h152l18 115h-152z" />
    <glyph glyph-name="semicolon" unicode=";" horiz-adv-x="329" 
d="M68 483l-18 -115h152l18 115h-152zM160 114h-150l-9 -52q-11 -76 -87 -139q-22 -19 -63 -46l-39 -27l80 -75q9 6 49 34t61 43q130 92 149 210z" />
    <glyph glyph-name="less" unicode="&#x3c;" horiz-adv-x="485" 
d="M490 465l-87 82l-310 -224l239 -224l113 80l-153 144z" />
    <glyph glyph-name="equal" unicode="=" horiz-adv-x="574" 
d="M120 490l-10 -63h465l10 63h-465zM86 277l-10 -61h466l10 61h-466z" />
    <glyph glyph-name="greater" unicode="&#x3e;" horiz-adv-x="485" 
d="M229 547l-113 -82l154 -142l-200 -144l87 -80l311 224z" />
    <glyph glyph-name="question" unicode="?" horiz-adv-x="756" 
d="M84 695l27 -98q98 28 147 40q99 23 169 23q29 0 54 -5t49.5 -18t35.5 -39t5 -64q-4 -24 -22 -42q-13 -13 -39 -24q-1 0 -48 -17q-18 -5 -47 -12.5t-37 -9.5q-56 -18 -83 -31q-106 -47 -134 -133h160q12 20 45 49q21 17 65 30q29 8 81 21q111 29 153 63q49 40 60 106
q8 50 -5.5 90t-41.5 65.5t-69.5 42.5t-86 24t-94.5 7q-79 0 -173.5 -18.5t-170.5 -49.5zM120 0h146l18 113h-146z" />
    <glyph glyph-name="at" unicode="@" horiz-adv-x="926" 
d="M587 792q-181 0 -305.5 -115t-154.5 -302q-30 -193 77.5 -305.5t302.5 -112.5q55 0 122 16t108 45l-29 70q-70 -40 -188 -40q-149 0 -229.5 87.5t-56.5 239.5q22 141 112 234.5t229 93.5q122 0 193.5 -72t51.5 -197q-7 -44 -32.5 -84t-65.5 -60l-33 -16l42 262h-100
l-6 -35l-28 23q-28 22 -72 22q-66 0 -119 -51.5t-64 -120.5q-11 -73 25 -123.5t105 -50.5q30 0 51 9l7 3l7 -2q53 -17 106 -17q108 0 187 66.5t96 174.5q27 169 -70 263.5t-269 94.5zM541 459q34 0 53 -26t14 -60t-32.5 -60t-61.5 -26q-35 0 -54 27t-13 60q5 33 33 59t61 26
z" />
    <glyph glyph-name="A" unicode="A" horiz-adv-x="944" 
d="M68 0h138l103 197h380l49 -197h138l-215 758h-166zM356 287l211 391l91 -391h-302z" />
    <glyph glyph-name="B" unicode="B" horiz-adv-x="851" 
d="M585 758h-397l-120 -758h453q104 0 191.5 59t103.5 157q7 47 -20 88.5t-72 62.5l-30 13l31 22q83 60 96 140q11 67 -21.5 117.5t-89 74.5t-125.5 24zM293 656h276q19 0 39.5 -4.5t40.5 -15t31 -31t6 -48.5q-9 -59 -53 -90t-99 -31h-276zM206 109l34 213h324
q47 0 80.5 -27.5t25.5 -78.5q-13 -81 -103 -101q-30 -6 -36 -6h-325z" />
    <glyph glyph-name="C" unicode="C" horiz-adv-x="956" 
d="M900 80l-84 79q-111 -72 -252 -72q-59 0 -115 18.5t-102 52t-69 89.5t-12 123q14 88 79 158t148 104.5t163 34.5q115 0 228 -74l106 69q-132 109 -318 109q-97 0 -193 -33q-131 -45 -232 -145.5t-120 -222.5q-19 -114 42 -206.5t168 -140.5q96 -42 210 -42q204 0 353 99z
" />
    <glyph glyph-name="D" unicode="D" horiz-adv-x="926" 
d="M511 758h-323l-120 -758h323q84 0 170.5 26.5t161 74t128 121t67.5 160.5q24 152 -94 264t-313 112zM234 115l84 528h175q71 0 133 -22q77 -29 124 -91.5t34 -147.5q-10 -65 -50 -118t-95.5 -84.5t-115 -48t-114.5 -16.5h-175z" />
    <glyph glyph-name="E" unicode="E" horiz-adv-x="813" 
d="M864 758h-676l-120 -758h686l20 124h-556l31 200h368l17 110h-367l32 201h546z" />
    <glyph glyph-name="F" unicode="F" horiz-adv-x="813" 
d="M864 758h-676l-120 -758h130l51 324h368l17 110h-367l32 201h546z" />
    <glyph glyph-name="G" unicode="G" 
d="M626 322l319 4l-12 -27q0 -3 -2 -7q-1 -6 -5 -11q-53 -93 -153.5 -140.5t-203.5 -47.5q-60 0 -119 18t-108 51.5t-75 89t-15 123.5q14 90 84 158t155.5 99.5t167.5 31.5q141 0 228 -80l119 71q-123 116 -330 116q-108 0 -212 -37q-129 -46 -223.5 -141.5t-113.5 -217.5
q-19 -119 46 -213t178 -140q96 -38 200 -38q111 0 215 38q128 45 222.5 139t113.5 214l9 53h-468z" />
    <glyph glyph-name="H" unicode="H" horiz-adv-x="877" 
d="M728 324l-51 -324h131l120 758h-131l-49 -310h-475l50 310h-135l-120 -758h135l50 324h475z" />
    <glyph glyph-name="I" unicode="I" horiz-adv-x="292" 
d="M199 758l-120 -758h133l120 758h-133z" />
    <glyph glyph-name="J" unicode="J" horiz-adv-x="879" 
d="M184 64q92 -88 251 -88q158 0 280 88q121 88 140 210l75 484h-139l-74 -466q-15 -90 -96 -141.5t-167 -51.5q-98 0 -153 55q-63 61 -50 138l7 45h-137l-10 -63q-19 -123 73 -210z" />
    <glyph glyph-name="K" unicode="K" horiz-adv-x="891" 
d="M631 389l298 368h-153l-236 -294h-272l47 294h-127l-120 -756h127l52 328h262l157 -328h157z" />
    <glyph glyph-name="L" unicode="L" horiz-adv-x="719" 
d="M188 758l-120 -758h583l19 122h-454l101 636h-129z" />
    <glyph glyph-name="M" unicode="M" horiz-adv-x="1295" 
d="M381 661l169 -661h194l371 661l-14 -661h126l19 758h-201l-385 -676l-173 676h-204l-215 -758h119z" />
    <glyph glyph-name="N" unicode="N" horiz-adv-x="927" 
d="M855 758l-97 -615l-396 615h-174l-120 -758h120l101 642l408 -642h161l121 758h-124z" />
    <glyph glyph-name="O" unicode="O" 
d="M864 740q-87 31 -188 31t-195 -31q-134 -44 -234 -141.5t-120 -223.5q-19 -120 47.5 -215t180.5 -140q92 -36 197 -36q106 0 209 36q130 45 226.5 139.5t115.5 215.5q20 127 -49 224t-190 141zM961 375q-11 -68 -52.5 -123.5t-98.5 -89t-119.5 -51.5t-121.5 -18
t-115.5 18t-102.5 51.5t-69 89t-12 123.5q15 90 80 158t146.5 99.5t162.5 31.5q59 0 116.5 -19t103.5 -54t69.5 -91.5t12.5 -124.5z" />
    <glyph glyph-name="P" unicode="P" horiz-adv-x="804" 
d="M566 758h-378l-120 -758h125l46 291h253q60 0 117 21q76 27 137.5 86t72.5 127t-29.5 125t-105.5 85q-57 23 -118 23zM296 648h253q32 1 65 -10.5t57.5 -41t17.5 -71.5q-6 -41 -39.5 -71t-70.5 -42t-70 -12h-253z" />
    <glyph glyph-name="Q" unicode="Q" horiz-adv-x="1127" 
d="M1072 80l-82 82l14 16q81 87 99 197q25 161 -98 279q-121 117 -325 117t-366 -117q-160 -116 -187 -279q-25 -160 99 -274q126 -117 330 -117q170 0 310 84l14 8l80 -77zM962 375q-14 -89 -79.5 -157t-147.5 -99t-163 -31q-59 0 -116.5 18.5t-104 53t-70.5 91t-13 124.5
q11 69 52.5 126t98.5 92.5t121 54.5t124 19q82 0 154 -32t115 -100.5t29 -159.5z" />
    <glyph glyph-name="R" unicode="R" horiz-adv-x="850" 
d="M611 758h-423l-120 -758h129l47 294h215l163 -294h152l-163 296l28 9q76 22 115 56l17 15q2 3 8 9t8 9q66 68 77 130q9 59 -35 131l-12 18q-3 6 -11 16l-9 9q-5 3 -13 9q-72 51 -173 51zM299 643h294q54 0 101 -30t38 -89q-6 -41 -40 -69t-69.5 -38t-67.5 -10h-294z" />
    <glyph glyph-name="S" unicode="S" horiz-adv-x="991" 
d="M925 622l60 111q-164 54 -340 54q-209 0 -329 -55q-128 -60 -159 -184q-4 -14 -5 -21q-8 -53 30 -99q33 -39 78 -54.5t121 -24.5q68 -8 131 -12q6 0 16 -1t18.5 -1.5t15.5 -0.5q2 0 33 -0.5t57 -2t49 -5.5q46 -9 75.5 -30.5t22.5 -63.5q-14 -86 -131 -119
q-66 -19 -163 -19q-194 0 -376 87l-34 -115q111 -47 209 -64t238 -17q347 0 413 229q2 5 4 19q17 108 -90 166q-39 21 -100.5 33t-115.5 12q-16 0 -66 0.5t-78 1.5q-86 4 -142 16q-38 9 -53 30q-11 17 -6 49q4 27 25.5 49.5t46.5 35.5q85 44 238 44q148 0 307 -48z" />
    <glyph glyph-name="T" unicode="T" horiz-adv-x="865" 
d="M917 758h-729l-18 -115h302l-102 -643h129l102 643h298z" />
    <glyph glyph-name="U" unicode="U" horiz-adv-x="879" 
d="M856 278l76 482h-141l-74 -466q-9 -61 -54.5 -106.5t-100 -65.5t-107.5 -20q-98 0 -154 55q-61 61 -50 137l74 466h-137l-76 -482q-19 -124 73 -210q94 -88 251 -88q162 0 279 88q120 89 141 210z" />
    <glyph glyph-name="V" unicode="V" horiz-adv-x="971" 
d="M188 760l178 -760h233l423 760h-161l-357 -656l-148 656h-168z" />
    <glyph glyph-name="W" unicode="W" horiz-adv-x="1293" 
d="M295 757h-157l165 -760h124l284 549l111 -549h115l408 760h-157l-272 -532l-110 532h-127l-275 -545z" />
    <glyph glyph-name="X" unicode="X" horiz-adv-x="796" 
d="M18 -1h157l248 304l151 -304h153l-210 404l329 354h-165l-226 -255l-151 255h-161l213 -354z" />
    <glyph glyph-name="Y" unicode="Y" horiz-adv-x="941" 
d="M334 757h-146l269 -482l-44 -275h115l44 276l421 481h-146l-314 -365z" />
    <glyph glyph-name="Z" unicode="Z" horiz-adv-x="831" 
d="M863 758h-655l-17 -110h442l-565 -648h694l18 113h-479z" />
    <glyph glyph-name="bracketleft" unicode="[" horiz-adv-x="410" 
d="M-23 -144h331l16 102h-177l133 842h178l16 103h-331z" />
    <glyph glyph-name="backslash" unicode="\" horiz-adv-x="591" 
d="M419 -144h150l-277 1047h-150z" />
    <glyph glyph-name="bracketright" unicode="]" horiz-adv-x="478" 
d="M474 903h-331l-16 -103h177l-133 -842h-178l-16 -102h331z" />
    <glyph glyph-name="underscore" unicode="_" horiz-adv-x="724" 
d="M14 87l-14 -87h577l14 87h-577z" />
    <glyph glyph-name="a" unicode="a" horiz-adv-x="944" 
d="M68 0h138l103 197h380l49 -197h138l-215 758h-166zM356 287l211 391l91 -391h-302z" />
    <glyph glyph-name="b" unicode="b" horiz-adv-x="851" 
d="M585 758h-397l-120 -758h453q104 0 191.5 59t103.5 157q7 47 -20 88.5t-72 62.5l-30 13l31 22q83 60 96 140q11 67 -21.5 117.5t-89 74.5t-125.5 24zM293 656h276q19 0 39.5 -4.5t40.5 -15t31 -31t6 -48.5q-9 -59 -53 -90t-99 -31h-276zM206 109l34 213h324
q47 0 80.5 -27.5t25.5 -78.5q-13 -81 -103 -101q-30 -6 -36 -6h-325z" />
    <glyph glyph-name="c" unicode="c" horiz-adv-x="956" 
d="M900 80l-84 79q-111 -72 -252 -72q-59 0 -115 18.5t-102 52t-69 89.5t-12 123q14 88 79 158t148 104.5t163 34.5q115 0 228 -74l106 69q-132 109 -318 109q-97 0 -193 -33q-131 -45 -232 -145.5t-120 -222.5q-19 -114 42 -206.5t168 -140.5q96 -42 210 -42q204 0 353 99z
" />
    <glyph glyph-name="d" unicode="d" horiz-adv-x="926" 
d="M511 758h-323l-120 -758h323q84 0 170.5 26.5t161 74t128 121t67.5 160.5q24 152 -94 264t-313 112zM234 115l84 528h175q71 0 133 -22q77 -29 124 -91.5t34 -147.5q-10 -65 -50 -118t-95.5 -84.5t-115 -48t-114.5 -16.5h-175z" />
    <glyph glyph-name="e" unicode="e" horiz-adv-x="822" 
d="M864 758h-676l-120 -758h686l20 124h-556l31 200h368l17 110h-367l32 201h546z" />
    <glyph glyph-name="f" unicode="f" horiz-adv-x="813" 
d="M864 758h-676l-120 -758h130l51 324h368l17 110h-367l32 201h546z" />
    <glyph glyph-name="g" unicode="g" 
d="M626 322l319 4l-12 -27q0 -3 -2 -7q-1 -6 -5 -11q-53 -93 -153.5 -140.5t-203.5 -47.5q-60 0 -119 18t-108 51.5t-75 89t-15 123.5q14 90 84 158t155.5 99.5t167.5 31.5q141 0 228 -80l119 71q-123 116 -330 116q-108 0 -212 -37q-129 -46 -223.5 -141.5t-113.5 -217.5
q-19 -119 46 -213t178 -140q96 -38 200 -38q111 0 215 38q128 45 222.5 139t113.5 214l9 53h-468z" />
    <glyph glyph-name="h" unicode="h" horiz-adv-x="877" 
d="M728 324l-51 -324h131l120 758h-131l-49 -310h-475l50 310h-135l-120 -758h135l50 324h475z" />
    <glyph glyph-name="i" unicode="i" horiz-adv-x="292" 
d="M199 758l-120 -758h133l120 758h-133z" />
    <glyph glyph-name="j" unicode="j" horiz-adv-x="879" 
d="M184 64q92 -88 251 -88q158 0 280 88q121 88 140 210l75 484h-139l-74 -466q-15 -90 -96 -141.5t-167 -51.5q-98 0 -153 55q-63 61 -50 138l7 45h-137l-10 -63q-19 -123 73 -210z" />
    <glyph glyph-name="k" unicode="k" horiz-adv-x="891" 
d="M631 389l298 368h-153l-236 -294h-272l47 294h-127l-120 -756h127l52 328h262l157 -328h157z" />
    <glyph glyph-name="l" unicode="l" horiz-adv-x="719" 
d="M188 758l-120 -758h583l19 122h-454l101 636h-129z" />
    <glyph glyph-name="m" unicode="m" horiz-adv-x="1295" 
d="M381 661l169 -661h194l371 661l-14 -661h126l19 758h-201l-385 -676l-173 676h-204l-215 -758h119z" />
    <glyph glyph-name="n" unicode="n" horiz-adv-x="927" 
d="M855 758l-97 -615l-396 615h-174l-120 -758h120l101 642l408 -642h161l121 758h-124z" />
    <glyph glyph-name="o" unicode="o" 
d="M864 740q-87 31 -188 31t-195 -31q-134 -44 -234 -141.5t-120 -223.5q-19 -120 47.5 -215t180.5 -140q92 -36 197 -36q106 0 209 36q130 45 226.5 139.5t115.5 215.5q20 127 -49 224t-190 141zM961 375q-11 -68 -52.5 -123.5t-98.5 -89t-119.5 -51.5t-121.5 -18
t-115.5 18t-102.5 51.5t-69 89t-12 123.5q15 90 80 158t146.5 99.5t162.5 31.5q59 0 116.5 -19t103.5 -54t69.5 -91.5t12.5 -124.5z" />
    <glyph glyph-name="p" unicode="p" horiz-adv-x="804" 
d="M566 758h-378l-120 -758h125l46 291h253q60 0 117 21q76 27 137.5 86t72.5 127t-29.5 125t-105.5 85q-57 23 -118 23zM296 648h253q32 1 65 -10.5t57.5 -41t17.5 -71.5q-6 -41 -39.5 -71t-70.5 -42t-70 -12h-253z" />
    <glyph glyph-name="q" unicode="q" horiz-adv-x="1127" 
d="M1072 80l-82 82l14 16q81 87 99 197q25 161 -98 279q-121 117 -325 117t-366 -117q-160 -116 -187 -279q-25 -160 99 -274q126 -117 330 -117q170 0 310 84l14 8l80 -77zM962 375q-14 -89 -79.5 -157t-147.5 -99t-163 -31q-59 0 -116.5 18.5t-104 53t-70.5 91t-13 124.5
q11 69 52.5 126t98.5 92.5t121 54.5t124 19q82 0 154 -32t115 -100.5t29 -159.5z" />
    <glyph glyph-name="r" unicode="r" horiz-adv-x="850" 
d="M611 758h-423l-120 -758h129l47 294h215l163 -294h152l-163 296l28 9q76 22 115 56l17 15q2 3 8 9t8 9q66 68 77 130q9 59 -35 131l-12 18q-3 6 -11 16l-9 9q-5 3 -13 9q-72 51 -173 51zM299 643h294q54 0 101 -30t38 -89q-6 -41 -40 -69t-69.5 -38t-67.5 -10h-294z" />
    <glyph glyph-name="s" unicode="s" horiz-adv-x="991" 
d="M925 622l60 111q-164 54 -340 54q-209 0 -329 -55q-128 -60 -159 -184q-4 -14 -5 -21q-8 -53 30 -99q33 -39 78 -54.5t121 -24.5q68 -8 131 -12q6 0 16 -1t18.5 -1.5t15.5 -0.5q2 0 33 -0.5t57 -2t49 -5.5q46 -9 75.5 -30.5t22.5 -63.5q-14 -86 -131 -119
q-66 -19 -163 -19q-194 0 -376 87l-34 -115q111 -47 209 -64t238 -17q347 0 413 229q2 5 4 19q17 108 -90 166q-39 21 -100.5 33t-115.5 12q-16 0 -66 0.5t-78 1.5q-86 4 -142 16q-38 9 -53 30q-11 17 -6 49q4 27 25.5 49.5t46.5 35.5q85 44 238 44q148 0 307 -48z" />
    <glyph glyph-name="t" unicode="t" horiz-adv-x="865" 
d="M917 758h-729l-18 -115h302l-102 -643h129l102 643h298z" />
    <glyph glyph-name="u" unicode="u" horiz-adv-x="879" 
d="M856 278l76 482h-141l-74 -466q-9 -61 -54.5 -106.5t-100 -65.5t-107.5 -20q-98 0 -154 55q-61 61 -50 137l74 466h-137l-76 -482q-19 -124 73 -210q94 -88 251 -88q162 0 279 88q120 89 141 210z" />
    <glyph glyph-name="v" unicode="v" horiz-adv-x="971" 
d="M188 760l178 -760h233l423 760h-161l-356 -656l-149 656h-168z" />
    <glyph glyph-name="w" unicode="w" horiz-adv-x="1343" 
d="M345 757h-157l165 -760h124l284 549l111 -549h115l408 760h-157l-272 -532l-110 532h-127l-275 -545z" />
    <glyph glyph-name="x" unicode="x" horiz-adv-x="846" 
d="M68 -1h157l248 304l151 -304h153l-210 404l329 354h-165l-226 -255l-151 255h-161l213 -354z" />
    <glyph glyph-name="y" unicode="y" horiz-adv-x="941" 
d="M334 757h-146l269 -482l-44 -275h115l44 276l421 481h-146l-314 -365z" />
    <glyph glyph-name="z" unicode="z" horiz-adv-x="831" 
d="M863 758h-655l-17 -110h442l-565 -648h694l18 113h-479z" />
    <glyph glyph-name="bar" unicode="|" horiz-adv-x="278" 
d="M144 907l-167 -1055h126l167 1055h-126z" />
    <glyph glyph-name="asciitilde" unicode="~" horiz-adv-x="662" 
d="M360 340q56 -16 110 -16q99 0 187 71l-72 53q-58 -45 -108 -45q-20 0 -45 5q-28 6 -41 10l-61 13q-30 6 -61 6q-87 0 -166 -54l76 -51q49 26 94 26q16 0 46 -6z" />
    <glyph glyph-name="uni00A0" unicode="&#xa0;" horiz-adv-x="0" 
 />
    <glyph glyph-name="exclamdown" unicode="&#xa1;" horiz-adv-x="317" 
d="M120 758l-18 -116h152l18 116h-152zM79 496l-79 -496h152l79 496h-152z" />
    <glyph glyph-name="cent" unicode="&#xa2;" horiz-adv-x="785" 
d="M625 312q-5 -15 -9 -22q-6 -14 -13 -26q-48 -79 -130 -106l-29 -10l73 458l26 -10q90 -35 104 -154h141q-2 116 -63 193.5t-171 95.5l-17 3l41 259h-99l-42 -264l-17 -3q-124 -25 -210.5 -122.5t-107.5 -226.5q-21 -130 34.5 -227.5t173.5 -122.5l16 -4l-43 -268h99
l42 265l18 3q116 17 201 94.5t124 194.5h-142zM417 600l-71 -449l-27 16q-52 30 -71 87t-9 123q11 66 48 123.5t98 85.5z" />
    <glyph glyph-name="sterling" unicode="&#xa3;" horiz-adv-x="807" 
d="M809 671q0 51 -6 83q-18 87 -81.5 130t-161.5 43q-13 0 -62 -7q-147 -23 -203 -102q-63 -90 -74 -165q-11 -62 -4 -137l2 -26h-99l-23 -146h135l-6 -40q-12 -73 -56.5 -128t-116.5 -105l42 -163l22 13q19 11 46 24q53 24 103 24q34 0 74 -10q6 -1 70 -20q89 -29 139 -29
q74 0 184 48l-45 158q-23 -10 -55 -22q-49 -15 -81 -15q-18 0 -50 6q-25 7 -44 13q-59 17 -97 17q-10 0 -32 -2l-46 -5l33 38q39 45 57.5 83.5t29.5 94.5l4 20h167l23 146h-199l-2 15q-13 87 -4 146q9 53 47 91t92 38q67 0 89 -55q12 -30 12 -82z" />
    <glyph glyph-name="yen" unicode="&#xa5;" horiz-adv-x="793" 
d="M89 113h226l-27 -172h170l27 172h227l22 140h-227l13 77h226l23 141h-160l253 403h-186q-162 -261 -185 -300l-25 -43l-12 43q-12 44 -89 300h-185l125 -403h-159l-23 -141h227l-12 -77h-227z" />
    <glyph glyph-name="copyright" unicode="&#xa9;" horiz-adv-x="993" 
d="M329 63q84 -28 168 -28q92 0 177 32q108 40 179.5 124t71.5 191q0 106 -71.5 189.5t-179.5 123.5q-85 32 -177 32q-84 0 -168 -28q-111 -38 -186 -123t-75 -194t75 -194.5t186 -124.5zM122 382q0 73 35 133.5t91 97.5t120.5 57.5t128.5 20.5t128.5 -20.5t120 -57.5
t90.5 -97.5t35 -133.5q0 -98 -64.5 -172.5t-157.5 -108.5q-73 -27 -152 -27t-153 27q-93 34 -157.5 108.5t-64.5 172.5zM647 259l-43 36q-44 -33 -103 -33q-55 0 -100 32.5t-45 91.5q0 55 47 89t98 34q30 0 61 -12q17 -7 40 -18l42 29q-64 50 -143 50q-93 0 -152 -55
q-25 -24 -41.5 -55.5t-16.5 -61.5q0 -75 64 -121.5t146 -46.5q37 0 78.5 11t67.5 30z" />
    <glyph glyph-name="registered" unicode="&#xae;" horiz-adv-x="992" 
d="M317 66q87 -32 178 -32q92 0 177 32q108 39 179.5 122.5t71.5 189.5q0 110 -74.5 195.5t-186.5 123.5q-78 28 -167 28q-88 0 -168 -28q-111 -38 -185 -123.5t-74 -195.5q0 -106 71 -189.5t178 -122.5zM121 378q0 58 23 109t61.5 87.5t87 62.5t100.5 39t102 13t102 -12.5
t101 -38.5t87 -62.5t61 -87.5t23 -110q0 -97 -64.5 -171t-157.5 -108q-73 -27 -152 -27t-151 27q-93 35 -158 109t-65 170zM648 231l-91 127l26 9q31 11 50.5 34.5t19.5 53.5q0 39 -35.5 69.5t-77.5 30.5h-195v-324h68v126h78l87 -126h70zM570 496q22 -16 22 -41
q0 -30 -21 -44.5t-45 -14.5h-113v116h113q24 0 44 -16z" />
    <glyph glyph-name="degree" unicode="&#xb0;" horiz-adv-x="541" 
d="M511 650q11 71 -45 117.5t-134 46.5t-149.5 -46.5t-82.5 -117.5t45.5 -117.5t134.5 -46.5t149 46.5t82 117.5zM440 650q-8 -53 -56 -83t-96 -30q-47 0 -85 30.5t-30 82.5t55.5 82t95.5 30t86 -30t30 -82z" />
    <glyph glyph-name="acute" unicode="&#xb4;" horiz-adv-x="377" 
d="M287 910l177 158h-168l-149 -158h140z" />
    <glyph glyph-name="periodcentered" unicode="&#xb7;" horiz-adv-x="268" 
d="M66 415l-14 -87h103l14 87h-103z" />
    <glyph glyph-name="questiondown" unicode="&#xbf;" horiz-adv-x="756" 
d="M222 644h146l18 113h-146zM42 160l-58 -98q66 -32 155 -50t168 -18q63 0 121 12t111.5 37t90 71.5t46.5 108.5q10 65 -27 106q-31 35 -133 63q-52 14 -74 21q-40 13 -55 30q-25 27 -30 49h-160q1 -86 92 -133q23 -13 73 -31q3 -1 31 -9t46 -14q30 -10 42 -16
q23 -12 32 -24q13 -18 9 -42q-6 -38 -25.5 -64t-48 -39t-55 -18t-55.5 -5q-70 0 -162 23q-51 14 -134 40z" />
    <glyph glyph-name="multiply" unicode="&#xd7;" horiz-adv-x="548" 
d="M253 377l-177 -161l55 -71l180 161l124 -161l80 71l-129 161l180 161l-57 70l-176 -159l-129 159l-77 -70z" />
    <glyph glyph-name="divide" unicode="&#xf7;" horiz-adv-x="560" 
d="M367 626q-28 0 -48.5 -18.5t-25.5 -47.5q-4 -28 11 -46.5t42 -18.5t48.5 18.5t25.5 46.5q5 28 -10.5 47t-42.5 19zM109 423l-15 -94h452l14 94h-451zM309 260q-27 0 -48 -19t-26 -48t10 -47.5t43 -18.5q26 0 47.5 19.5t26.5 46.5q4 28 -11.5 47.5t-41.5 19.5z" />
    <glyph glyph-name="circumflex" unicode="&#x2c6;" horiz-adv-x="515" 
d="M289 1068l-144 -154h131l102 104l58 -104h129l-96 154h-180z" />
    <glyph glyph-name="caron" unicode="&#x2c7;" horiz-adv-x="489" 
d="M170 1068l95 -154h173l152 154h-127l-93 -104l-70 104h-130z" />
    <glyph glyph-name="tilde" unicode="&#x2dc;" horiz-adv-x="637" 
d="M414 928q54 -17 109 -17q98 0 188 72l-72 52q-56 -45 -107 -45q-16 0 -46 6q-24 5 -41 10q-9 2 -29.5 6.5t-31.5 6.5q-30 6 -61 6q-90 0 -166 -55l76 -51q44 26 94 26q21 0 46 -5q8 -2 23 -6.5t18 -5.5z" />
    <glyph glyph-name="endash" unicode="&#x2013;" horiz-adv-x="724" 
d="M66 415l-14 -87h577l14 87h-577z" />
    <glyph glyph-name="emdash" unicode="&#x2014;" horiz-adv-x="1170" 
d="M66 415l-14 -87h1021l14 87h-1021z" />
    <glyph glyph-name="quoteleft" unicode="&#x2018;" horiz-adv-x="449" 
d="M90 570h139l8 52q12 74 88 138q27 23 65 49q21 14 37 26l-79 74l-111 -77q-119 -85 -138 -210z" />
    <glyph glyph-name="quoteright" unicode="&#x2019;" horiz-adv-x="450" 
d="M440 914h-139l-9 -54q-13 -75 -87 -137q-30 -25 -64 -47l-38 -26l80 -76q20 15 57.5 40.5t52.5 36.5q119 87 139 209z" />
    <glyph glyph-name="quotesinglbase" unicode="&#x201a;" horiz-adv-x="316" 
d="M160 114h-150l-9 -52q-11 -76 -87 -139q-22 -19 -63 -46l-39 -27l80 -75q9 6 49 34t61 43q130 92 149 210z" />
    <glyph glyph-name="quotedblleft" unicode="&#x201c;" horiz-adv-x="661" 
d="M-2 569h151l9 52q11 72 83 136q25 23 62 49q30 21 37 26l-80 77q-112 -67 -175.5 -131t-78.5 -157zM367 569h151l8 52q12 76 87 138q30 25 64 47q26 18 38 27l-80 75q-21 -15 -61 -43t-49 -34q-59 -42 -100 -96.5t-50 -113.5z" />
    <glyph glyph-name="quotedblright" unicode="&#x201d;" horiz-adv-x="662" 
d="M287 914h-150l-9 -54q-13 -75 -87 -137q-30 -25 -64 -47l-38 -26l80 -76q21 16 63 44.5t47 32.5q131 94 149 209zM656 914h-151l-8 -54q-10 -60 -62 -114q-39 -41 -121 -107l80 -75q36 28 110 82q123 90 144 214z" />
    <glyph glyph-name="quotedblbase" unicode="&#x201e;" horiz-adv-x="665" 
d="M160 114h-150l-9 -52q-11 -76 -87 -139q-22 -19 -63 -46l-39 -27l80 -75q9 6 49 34t61 43q130 92 149 210zM529 114h-151l-8 -52q-10 -64 -62 -116q-47 -48 -121 -106l80 -76q15 12 110 81q57 42 96 98.5t48 118.5z" />
    <glyph glyph-name="bullet" unicode="&#x2022;" horiz-adv-x="359" 
d="M195 489q-44 0 -85 -27t-47 -65t26 -65t77 -27t85.5 27t47.5 65q6 38 -27 65t-77 27z" />
    <glyph glyph-name="ellipsis" unicode="&#x2026;" horiz-adv-x="1025" 
d="M18 115l-18 -115h135l18 115h-135zM375 115l-19 -115h135l18 115h-134zM731 115l-18 -115h135l18 115h-135z" />
    <glyph glyph-name="Euro" unicode="&#x20ac;" horiz-adv-x="984" 
d="M928 76l-116 116q-100 -113 -229 -113q-89 0 -147 52.5t-70 139.5l-4 27h407l25 158h-407l12 27q40 88 114.5 140.5t163.5 52.5q133 0 194 -114l152 114q-104 166 -320 166q-167 0 -302 -101t-192 -268l-5 -17h-90l-25 -158h90v-17q4 -167 107.5 -269t269.5 -102
q214 0 372 166z" />
    <glyph glyph-name="trademark" unicode="&#x2122;" horiz-adv-x="1075" 
d="M1 754v-41h117v-278h73v278h123v41h-313zM861 754h-90l-114 -281l-118 281h-92l-41 -319h69l26 239l110 -239h88l107 236l33 -236h63z" />
    <glyph glyph-name="_FSHallmark" horiz-adv-x="1134" 
d="M1066 644h-993v99h993v-99zM852 174q-47 0 -80 9q-37 9 -70 29q-34 20 -52 47q-18 26 -18 65h115q0 -7 4 -16q5 -18 18 -26q14 -11 29 -17q21 -11 57 -11q38 0 64 13q24 11 24 26q0 29 -96 46q-98 24 -142 47q-62 19 -62 82q0 46 40 75q31 23 86 40q30 8 83 8t112 -18
q51 -17 80 -65q12 -27 12 -51h-119q0 11 -9 22q-3 3 -22 18l-28 11q-24 2 -27 2q-38 0 -59 -12q-25 -12 -25 -29q0 -29 22 -41q10 -6 54 -18l79 -16q9 -1 36 -7q22 -2 30 -7q2 -1 11 -4.5t15 -4.5q19 -12 37 -28q10 -20 13 -43q3 -25 -12 -51q-27 -41 -88 -59
q-55 -16 -112 -16zM202 174h-129v416h417v-95h-288v-93h238v-91h-238v-137zM539 176q-21 0 -41 16q-19 12 -19 34q0 20 18 35q18 13 42 13q27 0 47 -15q19 -14 19 -33q0 -20 -19 -36q-23 -14 -47 -14zM1064 23h-996v100h996v-100z" />
    <glyph glyph-name="_Fontastica" horiz-adv-x="854" 
d="M187 144h-117q-2 1 -2 5v580h516v-87h-397v-241h400v-90h-400v-167zM781 145h-520v88h401v239h-401v92h401v165h119v-584zM674 49q-9 0 -21 6q-5 5 -10 19q-1 10 7 18q12 11 24 11q14 0 25 -11l-5 -6l-7 4q-2 2 -10 2h-3q-10 -4 -12 -6q-5 -2 -5 -8q0 -7 5 -14
q6 -4 12 -4t20 4l5 -4q-8 -11 -25 -11zM86 51h-16v50h44v-9h-28v-13h28v-9h-28v-19zM167 48q-8 0 -14 3q-18 7 -18 22q0 13 9 19q7 9 23 9q23 0 30 -13q11 -9 3 -24q-7 -12 -26 -15zM275 49q-2 0 -10 6q0 1 -2 3.5t-3 4.5l-6 7q-12 12 -13 12v-31h-13v50h11q5 0 7 -5l14 -14
q5 -9 11 -15v34h11v-50h-3q-1 -2 -4 -2zM339 51h-12v41h-18v9h49v-9h-19v-41zM486 49q-20 0 -30 8q2 2 2 3v2q0 2 3 2l18 -4h8q4 4 4 3q0 7 -14 10q-1 0 -2 1q0 1 -6 1q-8 0 -8 11q-4 8 8 14q4 1 13 1q17 0 24 -4l-4 -9q-3 1 -5 1t-3 1h-4l-3 2h-8q-4 0 -4 -3q0 -4 4 -7
q5 -1 15 -4q12 -4 12 -12q3 -10 -11 -15q-1 -2 -9 -2zM560 51h-16v41h-17v9h50v-9h-17v-41zM617 51h-15v50h15v-50zM733 51h-13q15 28 23 50h16l13 -23q0 -2 2.5 -7t2.5 -7q7 -12 8 -13h-13l-6 11h-29zM384 51h-12l25 49h13q6 -11 7 -12t7 -13q4 -8 4 -11l6 -13h-13v4
q0 1 -1.5 2.5t-2.5 4.5h-28v-7q-2 0 -2 -2zM167 59q5 0 7 1q11 3 11 15q0 10 -4 13q-10 4 -14 4l-4 -2q-6 0 -11 -8q-9 -5 -2 -12q3 -11 17 -11zM404 89l-11 -19h19q0 5 -2 5q-1 0 -1 3q-1 2 -1 3q-3 0 -3 4q0 3 -1 4zM751 89l-11 -19h21q-2 1 -2 5q-2 0 -2 6q0 1 -3 4
q0 3 -3 4z" />
    </font>
</defs>
</svg>
