<?xml version="1.0" standalone="no"?>
<!DOCTYPE svg PUBLIC "-//W3C//DTD SVG 1.1//EN" "http://www.w3.org/Graphics/SVG/1.1/DTD/svg11.dtd" >
<svg xmlns="http://www.w3.org/2000/svg" xmlns:xlink="http://www.w3.org/1999/xlink" version="1.1">
<metadata>
Created by FontForge 20170731 at Tue Dec  3 19:06:47 2019
 By Aleksey,,,
Copyright (c) 2019 by Fontastica. All rights reserved.
</metadata>
<defs>
<font id="Dublin-Italic" horiz-adv-x="1013" >
  <font-face 
    font-family="Dublin Italic"
    font-weight="400"
    font-style="italic"
    font-stretch="normal"
    units-per-em="1000"
    panose-1="0 0 5 0 0 0 0 0 0 0"
    ascent="800"
    descent="-200"
    x-height="766"
    cap-height="767"
    bbox="-184 -235 1429 1064"
    underline-thickness="50"
    underline-position="-200"
    unicode-range="U+000D-2122"
  />
<missing-glyph horiz-adv-x="506" 
 />
    <glyph glyph-name=".notdef" horiz-adv-x="506" 
 />
    <glyph glyph-name=".null" horiz-adv-x="0" 
 />
    <glyph glyph-name="nonmarkingreturn" horiz-adv-x="333" 
 />
    <glyph glyph-name="CR" unicode="&#xd;" horiz-adv-x="506" 
 />
    <glyph glyph-name="space" unicode=" " horiz-adv-x="506" 
 />
    <glyph glyph-name="exclam" unicode="!" horiz-adv-x="354" 
d="M121 767h189l-81 -515h-189zM24 150h189l-24 -150h-189z" />
    <glyph glyph-name="quotedbl" unicode="&#x22;" horiz-adv-x="866" 
d="M306 917h188l-11 -72q-19 -118 -156 -216q-15 -10 -40 -27t-45 -30.5t-37 -27.5l-106 99q7 6 64 45t78 60q45 45 54 97zM668 917h187l-11 -72q-18 -110 -153 -218q-13 -11 -118 -92l-106 97q88 68 135 116q46 44 55 97z" />
    <glyph glyph-name="numbersign" unicode="#" horiz-adv-x="1231" 
d="M1114 461h-179l-86 -146h174l-74 -123h-173l-113 -192h-172l113 192h-216l-113 -192h-172l113 192h-189l74 123h188l86 146h-183l72 122h183l108 184h172l-108 -184h216l108 184h173l-109 -184h179zM677 315l86 146h-216l-86 -146h216z" />
    <glyph glyph-name="dollar" unicode="$" horiz-adv-x="1024" 
d="M338 -4q-171 21 -356 101l92 134q163 -64 288 -85l29 181q-30 1 -67 8q-154 15 -206 81q-51 54 -28 131q23 115 167 178q83 39 205 51l21 131h170l-21 -133l98 -17q130 -33 207 -59l-77 -129q-132 45 -251 63l-26 -166h16q143 -7 220 -45q125 -69 92 -198
q-23 -81 -84 -135t-140.5 -77t-179.5 -25l-20 -124h-170zM322 483q31 -8 92 -12l25 161q-67 -12 -104 -29q-46 -23 -58 -64q-3 -25 4 -34q11 -16 41 -22zM560 320l-30 -185q37 3 68 10q100 22 119 89q12 45 -26 61q-33 20 -128 25h-3z" />
    <glyph glyph-name="percent" unicode="%" horiz-adv-x="1226" 
d="M369 774q102 0 164.5 -58t49.5 -141q-13 -82 -94 -140.5t-183 -58.5t-165.5 58.5t-50.5 140.5t94.5 140.5t184.5 58.5zM111 0l791 763h212l-791 -763h-212zM250 576q-5 -29 17.5 -49.5t58.5 -20.5t65 20.5t34 49.5t-18 49.5t-59 20.5t-64.5 -20.5t-33.5 -49.5zM925 390
q103 0 167 -58.5t50 -141.5q-13 -82 -95 -140t-185 -58q-101 0 -164 58t-50 140q14 83 95 141.5t182 58.5zM808 190q-5 -29 18 -49.5t59 -20.5t64.5 20.5t33.5 49.5t-17.5 49.5t-58.5 20.5t-65 -20.5t-34 -49.5z" />
    <glyph glyph-name="ampersand" unicode="&#x26;" horiz-adv-x="1123" 
d="M1024 238q-54 -50 -134 -108q43 -28 114 -78l-122 -115q-15 8 -37 23.5t-57.5 41.5t-60.5 43q-126 -47 -290 -56q-63 -2 -119 4t-108.5 21.5t-90 40.5t-60 65t-22.5 91q1 128 144 199q20 10 82 30q-25 45 -19 99q10 95 100 165t207 74q121 2 196.5 -61t65.5 -160
q-8 -71 -63.5 -129.5t-138.5 -85.5q58 -50 155 -122q79 51 137 103zM421 550q-2 -16 3.5 -31t13.5 -24t18 -19l12 -12q47 0 67 5q38 8 66.5 33t29.5 53q4 34 -23.5 58t-71.5 24q-44 -3 -78.5 -28t-36.5 -59zM479 135q87 12 106 17q-86 64 -205 163q-71 -7 -104 -24
q-20 -11 -33.5 -29t-10.5 -39q10 -60 96 -83q62 -10 151 -5z" />
    <glyph glyph-name="quotesingle" unicode="'" horiz-adv-x="495" 
d="M309 917h177l-11 -72q-20 -127 -145 -216q-15 -10 -40 -27t-45 -30.5t-37 -27.5l-106 99q7 6 64 45t78 60q45 45 54 97z" />
    <glyph glyph-name="parenleft" unicode="(" horiz-adv-x="485" 
d="M96 -174q-88 226 -35 558t212 559l160 -59q-71 -99 -120.5 -232t-70.5 -267.5t-13.5 -267.5t46.5 -232z" />
    <glyph glyph-name="parenright" unicode=")" horiz-adv-x="410" 
d="M-18 -115q143 203 190 499.5t-32 499.5l177 59q89 -232 37 -559q-53 -332 -214 -558z" />
    <glyph glyph-name="asterisk" unicode="*" horiz-adv-x="655" 
d="M603 472l-69 -77l-140 73l-22 -142h-113l22 142l-160 -75l-47 75l169 79l-144 75l69 77l138 -72l23 142h113l-23 -142l163 75l45 -80l-169 -75z" />
    <glyph glyph-name="plus" unicode="+" horiz-adv-x="713" 
d="M111 438h226l29 180h153l-29 -180h226l-19 -123h-226l-29 -181h-153l29 181h-226z" />
    <glyph glyph-name="comma" unicode="," horiz-adv-x="361" 
d="M24 149h187l-11 -70q-19 -119 -156 -217q-94 -63 -121 -84l-107 98q8 6 65 45t78 60q45 45 54 98z" />
    <glyph glyph-name="hyphen" unicode="-" horiz-adv-x="574" 
d="M69 438h423l-19 -123h-423z" />
    <glyph glyph-name="period" unicode="." horiz-adv-x="349" 
d="M24 150h172l-24 -150h-172z" />
    <glyph glyph-name="slash" unicode="/" horiz-adv-x="640" 
d="M165 -138h-190l617 1044h190z" />
    <glyph glyph-name="zero" unicode="0" horiz-adv-x="1131" 
d="M688 780q136 0 242.5 -53t158.5 -145t34 -202q-26 -163 -190 -279t-371 -116q-134 0 -240 53t-158.5 144t-35.5 198q18 110 99 202t203.5 145t257.5 53zM584 124q133 0 240.5 75t123.5 181q17 107 -66.5 183.5t-216.5 76.5t-238.5 -76t-122.5 -184q-17 -107 65 -181.5
t215 -74.5z" />
    <glyph glyph-name="one" unicode="1" horiz-adv-x="501" 
d="M432 0h-190l99 625h-174l22 138h364l-22 -138z" />
    <glyph glyph-name="two" unicode="2" horiz-adv-x="946" 
d="M777 347q-26 -10 -146.5 -50.5t-192 -76t-99.5 -75.5h534l-23 -145h-782q35 216 259 326q26 13 57 26t55 22.5t60 23t53 19.5t54.5 18.5t45.5 15.5q29 11 53 23.5t49 32t24 43.5t-33 49q-48 38 -174 34q-131 -1 -355 -67l-38 126q125 41 223 60q110 21 187 22
q167 6 274 -52q61 -32 91.5 -91t-1.5 -133q-45 -100 -175 -151z" />
    <glyph glyph-name="three" unicode="3" horiz-adv-x="806" 
d="M286 3q-84 1 -179 22l-17 4l102 127q65 -11 122 -12q124 -4 185 34q39 25 51 52t0 46.5t-32.5 33t-41.5 16.5l-33 4h-243l325 307h-356l20 130h669l-329 -307l53 -18l29 -12q116 -53 127 -151q7 -74 -41.5 -133t-118.5 -91q-126 -58 -292 -52z" />
    <glyph glyph-name="four" unicode="4" horiz-adv-x="919" 
d="M831 767l-68 -433h141l-22 -137h-141l-31 -197h-186l30 187h-456l22 139l309 441h402zM576 326l48 303h-89l-214 -303h255z" />
    <glyph glyph-name="five" unicode="5" horiz-adv-x="769" 
d="M739 279q7 -74 -41.5 -133t-118.5 -91q-126 -58 -292 -52q-119 2 -179 22l-34 11l21 136l97 -20q36 -6 124 -8q124 -4 184 34q39 24 50.5 50.5t2 46t-31.5 34.5q-11 5 -22.5 8t-22.5 5.5t-30 3.5t-35 2t-49 1t-60.5 -0.5t-80.5 -0.5h-99l69 438h577l-20 -129h-387
l-28 -179h149q77 0 141 -27.5t98 -83.5q7 -11 9 -26q7 -19 9 -42z" />
    <glyph glyph-name="six" unicode="6" horiz-adv-x="918" 
d="M900 345q2 -128 -109 -231q-66 -61 -156 -95q-87 -33 -177 -33q-130 0 -223 62q-117 78 -122 206q-5 125 109 232l18 15l166 153l128 108l215 -1l-164 -151q114 -6 194 -60q118 -77 121 -205zM657 201q59 54 59 122q-5 69 -67 109q-47 33 -115 33q-102 0 -177 -67
q-61 -56 -59 -122q3 -69 65 -109q49 -33 118 -33q103 0 176 67z" />
    <glyph glyph-name="seven" unicode="7" horiz-adv-x="865" 
d="M203 36q15 97 46.5 178t70 134t81.5 95t85 69t77 47.5t60.5 39.5t32.5 37h-487l20 129h728q-13 -80 -44 -137t-71.5 -91.5t-87.5 -63.5t-95.5 -64.5t-91 -82.5t-77.5 -130t-53 -196h-200z" />
    <glyph glyph-name="eight" unicode="8" horiz-adv-x="753" 
d="M724 269q3 -100 -86 -181q-52 -49 -123 -74q-70 -26 -141 -26q-103 0 -175 48q-92 60 -95 162q-3 101 86 182q19 18 60 44q-45 49 -46 110q-3 85 73 153q48 43 103 63q66 22 120 22q86 0 148 -41q78 -51 80.5 -137.5t-72.5 -154.5l-19 -15q84 -58 87 -155zM407 603
q-22 -21 -24 -49q0 -24 26 -44q21 -12 46 -12q44 0 71 26q23 22 22.5 49t-25.5 43q-17 13 -45 13q-44 0 -71 -26zM509 172q38 35 36.5 77t-41.5 68q-32 21 -72 21q-69 0 -113 -43q-39 -35 -37 -76.5t42 -68.5q29 -20 73 -20q65 0 112 42z" />
    <glyph glyph-name="nine" unicode="9" horiz-adv-x="918" 
d="M139 416q-5 126 108 231q70 63 156 94q89 33 178 33q128 0 223 -61q118 -77 121 -207q3 -125 -108 -231l-19 -15l-165 -153l-128 -108l-215 1l164 150q-114 8 -195 61q-117 79 -120 205zM382 560q-60 -55 -60 -122q5 -68 67 -110q46 -33 116 -33q103 0 176 68
q62 56 59 121q-2 69 -65 110q-49 33 -118 33q-103 0 -175 -67z" />
    <glyph glyph-name="colon" unicode=":" horiz-adv-x="374" 
d="M80 503h189l-24 -150h-189zM24 150h189l-24 -150h-189z" />
    <glyph glyph-name="semicolon" unicode=";" horiz-adv-x="374" 
d="M80 503h189l-24 -150h-189zM24 149h187l-11 -70q-19 -119 -156 -217q-94 -63 -121 -84l-107 98q8 6 65 45t78 60q45 45 54 98z" />
    <glyph glyph-name="less" unicode="&#x3c;" horiz-adv-x="541" 
d="M547 466l-194 -136l150 -138l-146 -103l-263 241l339 240z" />
    <glyph glyph-name="equal" unicode="=" horiz-adv-x="604" 
d="M123 510h496l-16 -100h-496zM90 306h496l-15 -99h-496z" />
    <glyph glyph-name="greater" unicode="&#x3e;" horiz-adv-x="541" 
d="M262 570l263 -240l-339 -241l-114 103l195 138l-151 136z" />
    <glyph glyph-name="question" unicode="?" horiz-adv-x="788" 
d="M84 696q70 32 167.5 54t217.5 20t197 -45q104 -59 92 -179q-6 -81 -68 -130q-47 -37 -159.5 -65.5t-133.5 -44.5q-38 -35 -44 -52h-193q23 109 151 166q42 19 98 34t92.5 26t50.5 25q14 11 15 33q15 157 -364 53q-21 -6 -57 -16q-18 -5 -25 -7zM146 148h183l-23 -148
h-183z" />
    <glyph glyph-name="at" unicode="@" horiz-adv-x="950" 
d="M128 380q-29 -188 77.5 -304.5t312.5 -116.5q59 0 129 17t115 50l9 7l-43 100l-13 -9q-54 -38 -178 -38q-144 0 -215 81t-50 213q20 125 101 209.5t209 84.5q117 0 179 -65.5t45 -172.5q-6 -37 -27 -70.5t-55 -49.5l38 238h-138l-3 -15q-31 25 -81 25q-78 0 -134.5 -57.5
t-67.5 -127.5q-11 -73 27 -130t118 -57q33 0 58 10q54 -17 109 -17q118 0 200.5 71.5t99.5 179.5q26 165 -70.5 264.5t-279.5 99.5q-99 0 -182.5 -34t-142 -92.5t-96 -133.5t-51.5 -160zM599 378q-4 -25 -24.5 -44t-44.5 -19t-38.5 19.5t-10.5 44.5q4 23 24.5 42t44.5 19
q25 0 39 -19t10 -43z" />
    <glyph glyph-name="A" unicode="A" horiz-adv-x="1017" 
d="M483 767h243l223 -767h-202l-48 189h-346l-108 -189h-197zM658 315l-72 301l-165 -301h237z" />
    <glyph glyph-name="B" unicode="B" horiz-adv-x="876" 
d="M189 767h409q123 0 193.5 -65t55.5 -162q-14 -87 -104 -150q48 -21 78 -65.5t22 -97.5q-16 -100 -108.5 -164.5t-210.5 -62.5h-456l22 138l28 177l22 138l28 176zM357 629l-27 -171h220q52 0 85 27t40 69q5 35 -23.5 55t-74.5 20h-220zM547 145q101 9 113 82
q6 33 -17.5 57.5t-69.5 24.5h-267l-26 -164h267z" />
    <glyph glyph-name="C" unicode="C" horiz-adv-x="991" 
d="M937 97q-156 -115 -380 -115q-133 0 -238 53t-157 143.5t-35 196.5q26 161 191 283t366 122q203 0 342 -126l-141 -89q-113 75 -224 75q-130 0 -235.5 -79.5t-122.5 -185.5q-17 -105 63.5 -178.5t212.5 -73.5q142 0 248 75z" />
    <glyph glyph-name="D" unicode="D" horiz-adv-x="950" 
d="M525 767q198 0 320 -112q59 -52 84.5 -121.5t12.5 -147.5q-26 -163 -183 -274q-164 -112 -355 -112h-336l21 134l79 499l21 134h336zM428 150q128 0 227.5 68.5t115.5 167.5q15 96 -63 163.5t-206 67.5h-151l-74 -467h151z" />
    <glyph glyph-name="E" unicode="E" horiz-adv-x="839" 
d="M891 767l-25 -158h-517l-24 -153h342l-23 -145h-342l-24 -152h527l-25 -159h-712l121 767h702z" />
    <glyph glyph-name="F" unicode="F" horiz-adv-x="839" 
d="M891 767l-25 -158h-517l-24 -153h342l-23 -145h-342l-49 -311h-185l121 767h702z" />
    <glyph glyph-name="G" unicode="G" horiz-adv-x="1043" 
d="M831 312l-306 -3l22 142h499l-11 -71q-26 -163 -190 -279t-371 -116q-134 0 -240 53t-158.5 144t-35.5 198q18 110 99 202t203.5 145t257.5 53q110 0 201.5 -35.5t150.5 -98.5l-154 -91q-80 82 -221 82q-133 0 -236.5 -74.5t-120.5 -182.5q-16 -106 63 -178.5t213 -72.5
q105 0 195 46.5t134 121.5z" />
    <glyph glyph-name="H" unicode="H" horiz-adv-x="902" 
d="M688 304h-376l-48 -304h-196l121 767h196l-46 -291h376l46 291h193l-121 -767h-193z" />
    <glyph glyph-name="I" unicode="I" horiz-adv-x="329" 
d="M189 767h192l-121 -767h-192z" />
    <glyph glyph-name="J" unicode="J" horiz-adv-x="904" 
d="M447 -23q-159 0 -258 89q-97 89 -76 217l12 80h174l-9 -63q-11 -67 44 -117q45 -48 138 -48q88 0 155 48t79 117l73 467h176l-74 -484q-21 -128 -147 -217q-124 -89 -287 -89z" />
    <glyph glyph-name="K" unicode="K" horiz-adv-x="933" 
d="M665 393l200 -392h-202l-155 315h-205l-50 -315h-185l121 765h185l-44 -282h215l229 282h198z" />
    <glyph glyph-name="L" unicode="L" horiz-adv-x="747" 
d="M189 767h192l-96 -610h419l-25 -157h-611z" />
    <glyph glyph-name="M" unicode="M" horiz-adv-x="1316" 
d="M393 512l-140 -512h-185l219 767h231l164 -617l356 617h227l-17 -767h-185l14 512l-311 -512h-216z" />
    <glyph glyph-name="N" unicode="N" horiz-adv-x="951" 
d="M815 767h188l-121 -767h-188l-352 539l-85 -539h-189l121 767h200l344 -522z" />
    <glyph glyph-name="O" unicode="O" horiz-adv-x="1131" 
d="M688 780q136 0 242.5 -53t158.5 -145t34 -202q-26 -163 -190 -279t-371 -116q-134 0 -240 53t-158.5 144t-35.5 198q18 110 99 202t203.5 145t257.5 53zM584 129q134 0 239 72.5t121 178.5q17 107 -64.5 182t-214.5 75t-236.5 -74.5t-120.5 -182.5q-16 -106 63 -178.5
t213 -72.5z" />
    <glyph glyph-name="P" unicode="P" horiz-adv-x="830" 
d="M189 767h390q124 0 202.5 -74.5t63.5 -168.5q-15 -92 -117.5 -168.5t-225.5 -76.5h-202l-44 -279h-188l44 279l21 134l35 220zM355 622l-32 -198h202q56 0 101 29t52 71q7 41 -29 69.5t-92 28.5h-202z" />
    <glyph glyph-name="Q" unicode="Q" horiz-adv-x="1158" 
d="M961 -7l-80 75q-144 -83 -315 -83q-206 0 -335 116q-61 54 -88.5 126t-14.5 153q26 167 192 283q165 117 372 117q208 0 330 -117q127 -117 101 -283q-18 -114 -102 -202l84 -82zM588 124q133 0 236.5 74.5t120.5 181.5q17 109 -63 184.5t-213 75.5q-134 0 -240 -75.5
t-123 -184.5q-17 -107 65.5 -181.5t216.5 -74.5z" />
    <glyph glyph-name="R" unicode="R" horiz-adv-x="888" 
d="M189 767h434q127 0 205 -72q37 -52 52 -91.5t9 -80.5q-11 -74 -115 -171q-51 -38 -122 -59l167 -293h-199l-160 282h-158l-45 -282h-189l45 282l20 131l35 220zM355 617l-30 -187h245q58 0 101 27q43 28 49 66t-28 65q-37 29 -92 29h-245z" />
    <glyph glyph-name="S" unicode="S" 
d="M937 592q-92 29 -185 42t-186.5 6t-163.5 -37q-46 -23 -58 -64q-3 -25 4 -34q11 -16 41 -22q48 -11 212 -17h65q143 -7 220 -45q125 -69 92 -198q-35 -124 -148 -180.5t-278 -56.5q-147 0 -245.5 18t-213.5 67l46 152q121 -62 259 -83t267 5q100 22 119 89q12 45 -26 61
q-33 20 -128 25h-59q-143 10 -180 15q-154 15 -206 81q-51 54 -28 131q12 61 59 113.5t110 79.5q78 37 221 50t260 -6q137 -23 209 -48z" />
    <glyph glyph-name="T" unicode="T" horiz-adv-x="890" 
d="M943 767l-23 -150h-279l-98 -617h-193l98 617h-282l23 150h754z" />
    <glyph glyph-name="U" unicode="U" horiz-adv-x="904" 
d="M881 287q-18 -123 -146 -217q-126 -89 -287 -89t-258 89q-96 88 -77 217l77 482h174l-74 -467q-10 -67 44 -116q46 -48 139 -48q89 0 154 48q69 49 79 116l74 467h178z" />
    <glyph glyph-name="V" unicode="V" 
d="M190 769h207l140 -595l328 595h201l-435 -769h-255z" />
    <glyph glyph-name="W" unicode="W" horiz-adv-x="1326" 
d="M336 766l101 -484l247 484h152l102 -472l244 472h197l-418 -769h-140l-103 489l-256 -489h-149l-174 769h197z" />
    <glyph glyph-name="X" unicode="X" horiz-adv-x="860" 
d="M18 -1l346 407l-223 360h209l141 -231l208 231h213l-341 -360l218 -407h-199l-140 276l-229 -276h-203z" />
    <glyph glyph-name="Y" unicode="Y" horiz-adv-x="1001" 
d="M381 766l188 -336l293 336h192l-416 -488l-44 -278h-188l44 278l-261 488h192z" />
    <glyph glyph-name="Z" unicode="Z" horiz-adv-x="876" 
d="M928 767l-548 -619h450l-23 -148h-739l552 622h-414l22 145h700z" />
    <glyph glyph-name="bracketleft" unicode="[" horiz-adv-x="443" 
d="M-22 -138l165 1044h364l-22 -139h-174l-121 -767h174l-22 -138h-364z" />
    <glyph glyph-name="backslash" unicode="\" horiz-adv-x="640" 
d="M428 -138l-286 1044h190l286 -1044h-190z" />
    <glyph glyph-name="bracketright" unicode="]" horiz-adv-x="511" 
d="M507 906l-165 -1044h-364l22 138h174l121 767h-174l22 139h364z" />
    <glyph glyph-name="underscore" unicode="_" horiz-adv-x="752" 
d="M19 123h605l-19 -123h-605z" />
    <glyph glyph-name="a" unicode="a" horiz-adv-x="1037" 
d="M503 767h243l223 -767h-202l-48 189h-346l-108 -189h-197zM678 315l-72 301l-165 -301h237z" />
    <glyph glyph-name="b" unicode="b" horiz-adv-x="876" 
d="M189 767h409q123 0 193.5 -65t55.5 -162q-14 -87 -104 -150q48 -21 78 -65.5t22 -97.5q-16 -100 -108.5 -164.5t-210.5 -62.5h-456l22 138l28 177l22 138l28 176zM357 629l-27 -171h220q52 0 85 27t40 69q5 35 -23.5 55t-74.5 20h-220zM547 145q101 9 113 82
q6 33 -17.5 57.5t-69.5 24.5h-267l-26 -164h267z" />
    <glyph glyph-name="c" unicode="c" horiz-adv-x="991" 
d="M937 97q-156 -115 -380 -115q-133 0 -238 53t-157 143.5t-35 196.5q26 161 191 283t366 122q203 0 342 -126l-141 -89q-113 75 -224 75q-130 0 -235.5 -79.5t-122.5 -185.5q-17 -105 63.5 -178.5t212.5 -73.5q142 0 248 75z" />
    <glyph glyph-name="d" unicode="d" horiz-adv-x="950" 
d="M525 767q198 0 320 -112q59 -52 84.5 -121.5t12.5 -147.5q-26 -163 -183 -274q-164 -112 -355 -112h-336l21 134l79 499l21 134h336zM428 150q128 0 227.5 68.5t115.5 167.5q15 96 -63 163.5t-206 67.5h-151l-74 -467h151z" />
    <glyph glyph-name="e" unicode="e" horiz-adv-x="848" 
d="M891 767l-25 -158h-517l-24 -153h342l-23 -145h-342l-24 -152h527l-25 -159h-712l121 767h702z" />
    <glyph glyph-name="f" unicode="f" horiz-adv-x="839" 
d="M891 767l-25 -158h-517l-24 -153h342l-23 -145h-342l-49 -311h-185l121 767h702z" />
    <glyph glyph-name="g" unicode="g" horiz-adv-x="1131" 
d="M919 312l-306 -3l22 142h499l-11 -71q-26 -163 -190 -279t-371 -116q-134 0 -240 53t-158.5 144t-35.5 198q18 110 99 202t203.5 145t257.5 53q110 0 201.5 -35.5t150.5 -98.5l-154 -91q-80 82 -221 82q-133 0 -236.5 -74.5t-120.5 -182.5q-16 -106 63 -178.5t213 -72.5
q105 0 195 46.5t134 121.5z" />
    <glyph glyph-name="h" unicode="h" horiz-adv-x="902" 
d="M688 304h-376l-48 -304h-196l121 767h196l-46 -291h376l46 291h193l-121 -767h-193z" />
    <glyph glyph-name="i" unicode="i" horiz-adv-x="329" 
d="M189 767h192l-121 -767h-192z" />
    <glyph glyph-name="j" unicode="j" horiz-adv-x="904" 
d="M447 -23q-159 0 -258 89q-97 89 -76 217l12 80h174l-9 -63q-11 -67 44 -117q45 -48 138 -48q88 0 155 48t79 117l73 467h176l-74 -484q-21 -128 -147 -217q-124 -89 -287 -89z" />
    <glyph glyph-name="k" unicode="k" horiz-adv-x="933" 
d="M665 393l200 -392h-202l-155 315h-205l-50 -315h-185l121 765h185l-44 -282h215l229 282h198z" />
    <glyph glyph-name="l" unicode="l" horiz-adv-x="747" 
d="M189 767h192l-96 -610h419l-25 -157h-611z" />
    <glyph glyph-name="m" unicode="m" horiz-adv-x="1316" 
d="M393 512l-140 -512h-185l219 767h231l164 -617l356 617h227l-17 -767h-185l14 512l-311 -512h-216z" />
    <glyph glyph-name="n" unicode="n" horiz-adv-x="951" 
d="M815 767h188l-121 -767h-188l-352 539l-85 -539h-189l121 767h200l344 -522z" />
    <glyph glyph-name="o" unicode="o" horiz-adv-x="1131" 
d="M688 780q136 0 242.5 -53t158.5 -145t34 -202q-26 -163 -190 -279t-371 -116q-134 0 -240 53t-158.5 144t-35.5 198q18 110 99 202t203.5 145t257.5 53zM584 129q134 0 239 72.5t121 178.5q17 107 -64.5 182t-214.5 75t-236.5 -74.5t-120.5 -182.5q-16 -106 63 -178.5
t213 -72.5z" />
    <glyph glyph-name="p" unicode="p" horiz-adv-x="830" 
d="M189 767h390q124 0 202.5 -74.5t63.5 -168.5q-15 -92 -117.5 -168.5t-225.5 -76.5h-202l-44 -279h-188l44 279l21 134l35 220zM355 622l-32 -198h202q56 0 101 29t52 71q7 41 -29 69.5t-92 28.5h-202z" />
    <glyph glyph-name="q" unicode="q" horiz-adv-x="1158" 
d="M961 -7l-80 75q-144 -83 -315 -83q-206 0 -335 116q-61 54 -88.5 126t-14.5 153q26 167 192 283q165 117 372 117q208 0 330 -117q127 -117 101 -283q-18 -114 -102 -202l84 -82zM588 124q133 0 236.5 74.5t120.5 181.5q17 109 -63 184.5t-213 75.5q-134 0 -240 -75.5
t-123 -184.5q-17 -107 65.5 -181.5t216.5 -74.5z" />
    <glyph glyph-name="r" unicode="r" horiz-adv-x="888" 
d="M189 767h434q127 0 205 -72q37 -52 52 -91.5t9 -80.5q-11 -74 -115 -171q-51 -38 -122 -59l167 -293h-199l-160 282h-158l-45 -282h-189l45 282l20 131l35 220zM355 617l-30 -187h245q58 0 101 27q43 28 49 66t-28 65q-37 29 -92 29h-245z" />
    <glyph glyph-name="s" unicode="s" 
d="M937 592q-92 29 -185 42t-186.5 6t-163.5 -37q-46 -23 -58 -64q-3 -25 4 -34q11 -16 41 -22q48 -11 212 -17h65q143 -7 220 -45q125 -69 92 -198q-35 -124 -148 -180.5t-278 -56.5q-147 0 -245.5 18t-213.5 67l46 152q121 -62 259 -83t267 5q100 22 119 89q12 45 -26 61
q-33 20 -128 25h-59q-143 10 -180 15q-154 15 -206 81q-51 54 -28 131q12 61 59 113.5t110 79.5q78 37 221 50t260 -6q137 -23 209 -48z" />
    <glyph glyph-name="t" unicode="t" horiz-adv-x="890" 
d="M943 767l-23 -150h-279l-98 -617h-193l98 617h-282l23 150h754z" />
    <glyph glyph-name="u" unicode="u" horiz-adv-x="904" 
d="M881 287q-18 -123 -146 -217q-126 -89 -287 -89t-258 89q-96 88 -77 217l77 482h174l-74 -467q-10 -67 44 -116q46 -48 139 -48q89 0 154 48q69 49 79 116l74 467h178z" />
    <glyph glyph-name="v" unicode="v" 
d="M190 769h207l140 -595l328 595h201l-435 -769h-255z" />
    <glyph glyph-name="w" unicode="w" horiz-adv-x="1376" 
d="M386 766l101 -484l247 484h152l102 -472l244 472h197l-418 -769h-140l-103 489l-256 -489h-149l-174 769h197z" />
    <glyph glyph-name="x" unicode="x" horiz-adv-x="910" 
d="M68 -1l346 407l-223 360h209l141 -231l208 231h213l-341 -360l218 -407h-199l-140 276l-229 -276h-203z" />
    <glyph glyph-name="y" unicode="y" horiz-adv-x="1001" 
d="M381 766l188 -336l293 336h192l-416 -488l-44 -278h-188l44 278l-261 488h192z" />
    <glyph glyph-name="z" unicode="z" horiz-adv-x="876" 
d="M928 767l-548 -619h450l-23 -148h-739l552 622h-414l22 145h700z" />
    <glyph glyph-name="bar" unicode="|" horiz-adv-x="315" 
d="M144 910h164l-166 -1052h-164z" />
    <glyph glyph-name="asciitilde" unicode="~" horiz-adv-x="717" 
d="M494 311q-38 0 -112 16q-57 19 -94.5 15.5t-77.5 -27.5l-107 69q45 36 91 55t88 19.5t71 -3.5t64 -12q7 -2 11 -3q54 -17 93 -12.5t90 47.5l103 -73q-105 -91 -220 -91z" />
    <glyph glyph-name="uni00A0" unicode="&#xa0;" horiz-adv-x="0" 
 />
    <glyph glyph-name="exclamdown" unicode="&#xa1;" horiz-adv-x="354" 
d="M121 767h189l-23 -151h-189zM82 516h189l-82 -516h-189z" />
    <glyph glyph-name="cent" unicode="&#xa2;" horiz-adv-x="814" 
d="M279 -235h137l40 257q123 18 213.5 101t125.5 196l6 20h-177l-6 -13q-17 -48 -52 -84t-83 -52l61 383q41 -16 65.5 -52t26.5 -82l1 -15h177v21q1 112 -62.5 194.5t-181.5 101.5l40 251h-137l-40 -256q-91 -18 -163.5 -73.5t-113.5 -128t-53 -152.5q-13 -81 4.5 -154
t72.5 -128.5t140 -73.5zM405 564l-58 -366q-45 25 -62.5 75t-7.5 109q9 59 42 108.5t86 73.5z" />
    <glyph glyph-name="sterling" unicode="&#xa3;" horiz-adv-x="843" 
d="M57 94l51 -192l25 15q82 53 152 53q31 0 65 -8q11 -3 33 -9.5t33 -9.5q93 -29 147 -29q87 0 190 48l18 8l-55 187l-23 -9q-73 -32 -122 -32q-37 0 -86 17q-32 8 -47 11q-27 6 -53 6q-10 0 -34 -2q39 44 59 83.5t32 98.5h164l29 180h-200q-13 79 -5 134q7 44 37.5 74
t74.5 30q87 0 83 -115v-19l213 33v18q5 122 -61 193t-200 71q-22 0 -33 -3q-6 0 -17.5 -2t-13.5 -2q-155 -23 -214 -108q-65 -94 -77 -168q-10 -64 -3 -136h-91l-29 -180h132l-3 -18q-18 -119 -159 -209z" />
    <glyph glyph-name="yen" unicode="&#xa5;" horiz-adv-x="842" 
d="M321 108l-26 -165h206l26 165h222l28 175h-222l5 34h222l28 175h-144l246 386h-227l-170 -271q-2 -5 -8.5 -14.5t-8.5 -13.5q-2 5 -4.5 14t-3.5 14l-84 271h-225l123 -386h-144l-28 -175h222l-5 -34h-222l-28 -175h222z" />
    <glyph glyph-name="copyright" unicode="&#xa9;" horiz-adv-x="1015" 
d="M508 34q-118 0 -219.5 47.5t-161 128.5t-59.5 176t59.5 176t160.5 128t220 47q118 0 219 -47t160.5 -128t59.5 -176t-59.5 -176t-160.5 -128.5t-219 -47.5zM508 663q-144 0 -245.5 -81t-101.5 -196q0 -113 102 -194t245 -81q142 0 244 81t102 194q0 115 -101.5 196
t-244.5 81zM603 320l10 8l72 -59l-9 -9q-68 -51 -164 -51q-95 0 -160.5 52.5t-65.5 128.5q0 68 64 127q66 58 162 58q92 0 164 -61l9 -8l-72 -50l-10 5q-47 27 -91 27q-49 0 -85.5 -29.5t-36.5 -68.5q0 -42 35 -70.5t87 -28.5q57 0 91 29z" />
    <glyph glyph-name="registered" unicode="&#xae;" horiz-adv-x="1014" 
d="M506 33q-182 0 -310 102.5t-128 247.5q0 147 128 249.5t310 102.5q119 0 220 -46.5t160 -128t59 -177.5q0 -145 -129 -247.5t-310 -102.5zM506 661q-140 0 -243 -82t-103 -196q0 -111 103 -192.5t243 -81.5q142 0 244 81t102 193q0 115 -101.5 196.5t-244.5 81.5z
M695 222h-118l-85 120h-46v-120h-107v350h211q50 0 89 -34q42 -36 42 -82q0 -49 -42 -81q-17 -14 -40 -22zM581 456q0 18 -13 24q-10 11 -32 11h-90v-71h90q22 0 32 10q13 13 13 26z" />
    <glyph glyph-name="degree" unicode="&#xb0;" horiz-adv-x="572" 
d="M349 821q90 0 147 -52.5t46 -125.5q-11 -72 -85 -124.5t-164 -52.5q-91 0 -148 52.5t-46 124.5q11 73 85 125.5t165 52.5zM307 555q45 0 82 26t43 62t-23 62t-74 26t-81.5 -26t-42.5 -62t23 -62t73 -26z" />
    <glyph glyph-name="acute" unicode="&#xb4;" horiz-adv-x="460" 
d="M328 873h-187l184 191h222z" />
    <glyph glyph-name="periodcentered" unicode="&#xb7;" horiz-adv-x="306" 
d="M69 438h141l-19 -123h-141z" />
    <glyph glyph-name="questiondown" unicode="&#xbf;" horiz-adv-x="788" 
d="M244 766h183l-23 -148h-183zM62 198q140 -43 194 -53q233 -45 262 83q6 22 -5 33q-9 14 -42 25t-84 26t-88 34q-110 58 -98 166h193q1 -19 28 -52q15 -15 66.5 -29t107.5 -33t83 -48q47 -48 28 -130q-28 -121 -150 -179q-91 -43 -211 -45t-211 20t-150 54z" />
    <glyph glyph-name="multiply" unicode="&#xd7;" horiz-adv-x="594" 
d="M78 227l77 -97l175 155l123 -155l110 97l-126 155l175 154l-80 96l-171 -153l-127 153l-107 -96l124 -154z" />
    <glyph glyph-name="divide" unicode="&#xf7;" horiz-adv-x="591" 
d="M289 557q-5 -32 13 -57t56 -25q37 0 63.5 25t31.5 57q6 33 -13 58t-56 25q-38 0 -63.5 -25t-31.5 -58zM92 316h482l21 130h-482zM233 205q-5 -33 13 -58t56 -25q37 0 63.5 25.5t31.5 57.5q6 32 -12.5 58t-55.5 26t-63.5 -25.5t-32.5 -58.5z" />
    <glyph glyph-name="circumflex" unicode="&#x2c6;" horiz-adv-x="589" 
d="M318 1064h196l120 -187h-178l-50 87l-88 -87h-179z" />
    <glyph glyph-name="caron" unicode="&#x2c7;" horiz-adv-x="565" 
d="M170 1064h178l60 -87l80 87h178l-189 -187h-188z" />
    <glyph glyph-name="tilde" unicode="&#x2dc;" horiz-adv-x="692" 
d="M543 874q-42 0 -112 17q-57 19 -94.5 15.5t-77.5 -28.5l-106 70q38 31 80 48.5t69.5 23.5t70 2t55 -6.5t50.5 -11.5q40 -9 52.5 -11.5t37.5 -1.5t45 12.5t48 34.5l102 -72q-104 -92 -220 -92z" />
    <glyph glyph-name="endash" unicode="&#x2013;" horiz-adv-x="752" 
d="M69 438h605l-19 -123h-605z" />
    <glyph glyph-name="emdash" unicode="&#x2014;" horiz-adv-x="1189" 
d="M69 438h1040l-19 -123h-1040z" />
    <glyph glyph-name="quoteleft" unicode="&#x2018;" horiz-adv-x="495" 
d="M263 547h-176l11 70q20 129 145 217q94 63 121 84l107 -97q-13 -9 -44.5 -30.5t-57 -41t-41.5 -35.5q-46 -46 -54 -97z" />
    <glyph glyph-name="quoteright" unicode="&#x2019;" horiz-adv-x="495" 
d="M309 917h177l-11 -72q-20 -127 -145 -216q-15 -10 -40 -27t-45 -30.5t-37 -27.5l-106 99q7 6 64 45t78 60q45 45 54 97z" />
    <glyph glyph-name="quotesinglbase" unicode="&#x201a;" horiz-adv-x="361" 
d="M24 149h187l-11 -70q-19 -119 -156 -217q-94 -63 -121 -84l-107 98q8 6 65 45t78 60q45 45 54 98z" />
    <glyph glyph-name="quotedblleft" unicode="&#x201c;" horiz-adv-x="699" 
d="M182 546h-188l12 70q10 64 49.5 121.5t100.5 101.5q60 42 122 78l106 -99q-4 -3 -40 -28.5t-59 -43t-38 -32.5q-46 -46 -53 -98zM543 546h-188l12 70q18 119 156 217q80 53 121 84l107 -98q-8 -6 -65 -45t-78 -60q-46 -46 -53 -98z" />
    <glyph glyph-name="quotedblright" unicode="&#x201d;" horiz-adv-x="699" 
d="M145 917h187l-11 -72q-19 -117 -155 -216q-106 -72 -122 -85l-106 99q7 6 64 45t78 60q45 45 54 97zM506 917h188l-11 -72q-21 -128 -150 -221q-68 -47 -121 -89l-107 97q87 67 136 116q45 45 54 97z" />
    <glyph glyph-name="quotedblbase" unicode="&#x201e;" horiz-adv-x="703" 
d="M24 149h187l-11 -70q-19 -119 -156 -217q-94 -63 -121 -84l-107 98q8 6 65 45t78 60q45 45 54 98zM385 149h188l-11 -70q-10 -64 -50.5 -122t-100.5 -101q-83 -59 -121 -89l-106 99q89 68 136 115q45 45 54 98z" />
    <glyph glyph-name="bullet" unicode="&#x2022;" horiz-adv-x="394" 
d="M64 401q7 43 52.5 75.5t99.5 32.5q55 0 90.5 -32.5t28.5 -75.5q-7 -44 -53 -76t-101 -32q-54 0 -89 32t-28 76z" />
    <glyph glyph-name="ellipsis" unicode="&#x2026;" horiz-adv-x="1047" 
d="M24 150h172l-24 -150h-172zM373 150h172l-24 -150h-172zM722 150h172l-24 -150h-172z" />
    <glyph glyph-name="Euro" unicode="&#x20ac;" 
d="M178 286q5 -161 107.5 -266.5t279.5 -105.5q107 0 207.5 44t174.5 124l13 14l-141 138l-16 -19q-85 -99 -206 -99q-82 0 -133 47t-63 123h392l31 191h-392q35 76 101 123.5t149 47.5q120 0 174 -99l10 -20l184 137l-8 14q-49 81 -134.5 124.5t-194.5 43.5
q-178 0 -313.5 -105t-190.5 -266h-91l-31 -191h91z" />
    <glyph glyph-name="trademark" unicode="&#x2122;" horiz-adv-x="1099" 
d="M1 763h346v-79h-120v-267h-111v267h-115v79zM881 763l45 -346h-102l-25 177l-82 -177h-111l-83 177l-20 -177h-108l45 346h121l102 -238l99 238h119z" />
    <glyph glyph-name="NULL" horiz-adv-x="0" 
 />
    <glyph glyph-name="_FSHallmark" horiz-adv-x="1134" 
d="M73 644v99h993v-99h-993zM852 174q-47 0 -80 9q-37 9 -70 29q-34 20 -52 47q-18 26 -18 65h115q0 -7 4 -16q5 -18 18 -26q14 -11 29 -17q21 -11 57 -11q38 0 64 13q24 11 24 26q0 29 -96 46q-98 24 -142 47q-62 19 -62 82q0 46 40 75q31 23 86 40q30 8 83 8t112 -18
q51 -17 80 -65q12 -27 12 -51h-119q0 11 -9 22q-3 3 -22 18l-28 11q-24 2 -27 2q-38 0 -59 -12q-25 -12 -25 -29q0 -29 22 -41q10 -6 54 -18l79 -16q9 -1 36 -7q22 -2 30 -7q2 -1 11 -4.5t15 -4.5q19 -12 37 -28q10 -20 13 -43q3 -25 -12 -51q-27 -41 -88 -59
q-55 -16 -112 -16zM73 174v416h417v-95h-288v-93h238v-91h-238v-137h-129zM539 176q-21 0 -41 16q-19 12 -19 34q0 20 18 35q18 13 42 13q27 0 47 -15q19 -14 19 -33q0 -20 -19 -36q-23 -14 -47 -14zM68 23v100h996v-100h-996z" />
    <glyph glyph-name="_Fontastica" horiz-adv-x="854" 
d="M70 144q-2 1 -2 5v580h516v-87h-397v-241h400v-90h-400v-167h-117zM261 145v88h401v239h-401v92h401v165h119v-584h-520zM674 49q-9 0 -21 6q-5 5 -10 19q-1 10 7 18q12 11 24 11q14 0 25 -11l-5 -6l-7 4q-2 2 -10 2h-3q-10 -4 -12 -6q-5 -2 -5 -8q0 -7 5 -14q6 -4 12 -4
t20 4l5 -4q-8 -11 -25 -11zM70 51v50h44v-9h-28v-13h28v-9h-28v-19h-16zM167 48q-8 0 -14 3q-18 7 -18 22q0 13 9 19q7 9 23 9q23 0 30 -13q11 -9 3 -24q-7 -12 -26 -15zM275 49q-2 0 -10 6q0 1 -2 3.5t-3 4.5l-6 7q-12 12 -13 12v-31h-13v50h11q5 0 7 -5l14 -14
q5 -9 11 -15v34h11v-50h-3q-1 -2 -4 -2zM327 51v41h-18v9h49v-9h-19v-41h-12zM486 49q-20 0 -30 8q2 2 2 3v2q0 2 3 2l18 -4h8q4 4 4 3q0 7 -14 10q-1 0 -2 1q0 1 -6 1q-8 0 -8 11q-4 8 8 14q4 1 13 1q17 0 24 -4l-4 -9q-3 1 -5 1t-3 1h-4l-3 2h-8q-4 0 -4 -3q0 -4 4 -7
q5 -1 15 -4q12 -4 12 -12q3 -10 -11 -15q-1 -2 -9 -2zM544 51v41h-17v9h50v-9h-17v-41h-16zM602 51v50h15v-50h-15zM720 51q15 28 23 50h16l13 -23q0 -2 2.5 -7t2.5 -7q7 -12 8 -13h-13l-6 11h-29l-4 -11h-13zM372 51l25 49h13q6 -11 7 -12t7 -13q4 -8 4 -11l6 -13h-13v4
q0 1 -1.5 2.5t-2.5 4.5h-28v-7q-2 0 -2 -2l-3 -2h-12zM167 59q5 0 7 1q11 3 11 15q0 10 -4 13q-10 4 -14 4l-4 -2q-6 0 -11 -8q-9 -5 -2 -12q3 -11 17 -11zM393 70h19q0 5 -2 5q-1 0 -1 3q-1 2 -1 3q-3 0 -3 4q0 3 -1 4zM740 70h21q-2 1 -2 5q-2 0 -2 6q0 1 -3 4q0 3 -3 4z
" />
    </font>
</defs>
</svg>
