<?xml version="1.0" standalone="no"?>
<!DOCTYPE svg PUBLIC "-//W3C//DTD SVG 1.1//EN" "http://www.w3.org/Graphics/SVG/1.1/DTD/svg11.dtd" >
<svg xmlns="http://www.w3.org/2000/svg" xmlns:xlink="http://www.w3.org/1999/xlink" version="1.1">
<metadata>
Created by FontForge 20170731 at Tue Dec  3 19:04:59 2019
 By Aleksey,,,
Copyright (c) 2019 by Fontastica. All rights reserved.
</metadata>
<defs>
<font id="Dublin-HeavyItalic" horiz-adv-x="1177" >
  <font-face 
    font-family="Dublin Heavy Italic"
    font-weight="900"
    font-style="italic"
    font-stretch="normal"
    units-per-em="1000"
    panose-1="0 0 10 0 0 0 0 0 0 0"
    ascent="800"
    descent="-200"
    x-height="780"
    cap-height="780"
    bbox="-178 -232 1498 1061"
    underline-thickness="50"
    underline-position="-200"
    unicode-range="U+000D-2122"
  />
<missing-glyph horiz-adv-x="506" 
 />
    <glyph glyph-name=".notdef" horiz-adv-x="506" 
 />
    <glyph glyph-name=".null" horiz-adv-x="0" 
 />
    <glyph glyph-name="nonmarkingreturn" horiz-adv-x="333" 
 />
    <glyph glyph-name="CR" unicode="&#xd;" horiz-adv-x="506" 
 />
    <glyph glyph-name="space" unicode=" " horiz-adv-x="506" 
 />
    <glyph glyph-name="exclam" unicode="!" horiz-adv-x="390" 
d="M348 774h-225l-85 -531h225zM253 179h-225l-28 -179h225z" />
    <glyph glyph-name="quotedbl" unicode="&#x22;" horiz-adv-x="937" 
d="M577 921h-260l-15 -98q-6 -37 -32.5 -63.5t-81.5 -62.5q-52 -36 -77 -55l-14 -10l153 -137l16 13q17 14 63 45q37 24 67 44q146 99 166 226zM927 921h-259l-16 -98q-5 -36 -43 -74q-30 -30 -68 -60q-24 -19 -74 -57l-14 -11l151 -133l16 11q41 28 100 72q81 62 130.5 122
t60.5 130z" />
    <glyph glyph-name="numbersign" unicode="#" horiz-adv-x="1307" 
d="M1159 431l107 178h-172l104 171h-251l-104 -171h-125l104 171h-250l-104 -171h-177l-107 -178h177l-45 -73h-182l-109 -179h184l-110 -179h250l109 179h126l-108 -179h249l108 179h168l108 179h-167l44 73h173zM610 431h126l-45 -73h-125z" />
    <glyph glyph-name="dollar" unicode="$" horiz-adv-x="1085" 
d="M660 498l14 87q105 -20 207 -56l19 -7l110 181l-16 5q-159 54 -289 74l20 130h-242l-20 -127q-149 -19 -250 -85t-118 -177q-10 -61 30.5 -113.5t111.5 -74.5q44 -11 83 -17l68 -9l-16 -101q-99 21 -243 75l-18 6l-127 -182l15 -7q192 -77 340 -99l-21 -130h243l18 117
q153 9 256 71t139 177q1 4 2.5 11.5t2.5 11.5q9 60 -19.5 111.5t-90.5 82.5q-77 39 -209 45zM431 582l-12 -75q-20 2 -29 4q-16 4 -24 7l-6 3l-1 1v4q0 7 1 10q2 19 32 33q16 7 30 11q1 0 4 1t5 1zM612 195l16 102q44 -3 70 -17q14 -7 13 -21q-8 -50 -99 -64z" />
    <glyph glyph-name="percent" unicode="%" horiz-adv-x="1268" 
d="M872 -8q118 0 209.5 64.5t105.5 153.5t-57 153.5t-189 64.5q-77 0 -145 -30l404 379h-302l-264 -247q5 14 11 40q14 88 -56.5 152.5t-187.5 64.5t-207.5 -64.5t-104.5 -152.5q-14 -89 56 -153.5t187 -64.5q75 0 142 28l-405 -380h303l273 256q-11 -24 -14 -46
q-14 -88 55.5 -153t185.5 -65zM413 570q-2 -14 -17 -23.5t-34 -9.5t-30.5 9.5t-9.5 23.5t17 24t33 10q19 0 31 -10t10 -24zM955 210q-2 -14 -17 -24.5t-34 -10.5q-18 0 -30 10.5t-10 24.5q2 13 17.5 23t33.5 10t30 -10t10 -23z" />
    <glyph glyph-name="ampersand" unicode="&#x26;" horiz-adv-x="1185" 
d="M1089 260l-172 117l-14 -12q-49 -42 -114 -86q-26 18 -89 66q69 34 113 87t53 113q17 102 -64.5 174t-216.5 72q-129 0 -229.5 -74t-115.5 -172q-8 -45 5 -85q-84 -28 -138.5 -81t-64.5 -120q-3 -19 -2 -35q2 -85 60.5 -139.5t142.5 -75t194 -20.5q156 0 300 48
q9 -6 28 -19.5t28 -20.5q41 -29 93 -58l15 -9l171 157l-14 9q-19 11 -52 33.5t-41 27.5q55 40 112 92zM554 596q29 0 45.5 -14.5t12.5 -36.5q-2 -14 -19 -27t-38 -17q-16 -4 -38 -4l-2 2q-1 1 -3 2.5t-3 2.5q-25 22 -22 43q3 19 23.5 34t43.5 15zM338 282q19 7 54 11
q15 -11 41.5 -32t48.5 -38t42 -32q-36 -2 -53 -2h-53q-17 0 -43 4q-29 6 -50.5 24t-18.5 37q3 18 32 28z" />
    <glyph glyph-name="quotesingle" unicode="'" horiz-adv-x="578" 
d="M570 921h-250l-15 -98q-6 -37 -32.5 -63.5t-81.5 -62.5q-52 -36 -77 -55l-14 -10l153 -137l16 13q17 14 63 45q52 33 67 44q133 91 155 226z" />
    <glyph glyph-name="parenleft" unicode="(" horiz-adv-x="568" 
d="M281 941q-165 -214 -219 -550q-53 -333 45 -549l6 -13l249 79l-7 14q-30 62 -43 147.5t-10.5 164.5t14.5 158q44 272 176 454l12 15l11 14l-224 80z" />
    <glyph glyph-name="parenright" unicode=")" horiz-adv-x="492" 
d="M145 861q82 -188 38 -470q-42 -259 -176 -454l-21 -30l222 -80l20 29q160 229 209 535q52 337 -45 550l-6 14l-247 -80z" />
    <glyph glyph-name="asterisk" unicode="*" horiz-adv-x="702" 
d="M558 376l93 103l-130 66l151 66l-60 106l-146 -66l20 125h-151l-20 -125l-124 63l-94 -103l130 -66l-152 -71l65 -100l142 65l-20 -124h151l20 125z" />
    <glyph glyph-name="plus" unicode="+" horiz-adv-x="742" 
d="M336 457h-222l-24 -153h222l-28 -175h190l28 175h222l24 153h-222l28 174h-190z" />
    <glyph glyph-name="comma" unicode="," horiz-adv-x="444" 
d="M302 202h-259l-16 -97q-5 -38 -31 -64t-81 -61q-43 -28 -79 -55l-14 -10l153 -135l16 12q8 6 131 87q66 45 110 104.5t54 121.5z" />
    <glyph glyph-name="hyphen" unicode="-" horiz-adv-x="638" 
d="M562 473h-487l-28 -178h487z" />
    <glyph glyph-name="period" unicode="." horiz-adv-x="421" 
d="M276 203h-244l-32 -203h244z" />
    <glyph glyph-name="slash" unicode="/" horiz-adv-x="730" 
d="M-23 -129h267l630 1040h-267z" />
    <glyph glyph-name="zero" unicode="0" 
d="M793 19q155 48 256 147t121 221q18 116 -41 212t-185 149q-107 45 -231 45t-245 -45q-141 -54 -231 -150t-108 -211q-19 -121 50.5 -220t208.5 -148q94 -33 197 -33t208 33zM682 599q113 0 184 -63t57 -149t-104.5 -147t-203.5 -61t-182.5 61t-55.5 147q14 87 103 149.5
t202 62.5z" />
    <glyph glyph-name="one" unicode="1" horiz-adv-x="567" 
d="M236 0h262l123 777h-430l-30 -192h168z" />
    <glyph glyph-name="two" unicode="2" horiz-adv-x="1009" 
d="M946 199h-471q45 24 117 51q32 12 110 37.5t119 41.5q185 73 206 210q10 60 -21.5 111.5t-93.5 83.5q-105 54 -262 54q-112 0 -231 -26q-75 -16 -222 -59l-19 -6l57 -176l19 5q236 66 371 66q89 0 121 -24q12 -10 16 -15q6 -9 5 -14q0 -4 -9 -13q-8 -8 -20 -15
q-28 -17 -72 -32q-16 -6 -45 -15t-38 -12q-147 -50 -228 -88q-235 -112 -271 -333l-5 -31h835z" />
    <glyph glyph-name="three" unicode="3" horiz-adv-x="905" 
d="M219 213l-145 -175l47 -9q117 -26 223 -26q160 0 279 53q72 32 120 84.5t57 111.5q11 68 -27 123.5t-113 86.5q-24 10 -36 14l336 304h-765l-30 -184h305l-312 -288h313q8 0 26 -2q19 -3 35 -17.5t14 -28.5q-3 -17 -36 -38q-40 -24 -129 -24q-57 0 -148 13z" />
    <glyph glyph-name="four" unicode="4" horiz-adv-x="972" 
d="M891 780h-453l-7 -9l-163 -225q-64 -90 -97 -135q-5 -6 -13.5 -18t-15.5 -21.5t-13 -17.5l-4 -7q-3 -6 -4 -10l-25 -162h441l-28 -175h258l29 184h137l31 192h-137zM567 368h-146l159 221h22z" />
    <glyph glyph-name="five" unicode="5" horiz-adv-x="826" 
d="M133 25q69 -22 209 -22q162 0 279 53q72 32 119.5 84t57.5 111q4 26 0 48q-3 20 -9 43q-2 10 -4 15q0 2 -6 16q-32 55 -105.5 86.5t-158.5 31.5h-105l16 105h375l29 184h-636l-76 -474h20q45 0 135 1t135 1q28 0 64 -3q37 -3 51 -10q23 -16 20 -35q-3 -18 -36 -38
q-38 -24 -127 -24h-70q-37 2 -65 7q-46 8 -116 23l-24 5l-30 -189z" />
    <glyph glyph-name="six" unicode="6" horiz-adv-x="971" 
d="M118 314q-21 -134 84.5 -231t281.5 -97q173 0 309.5 97t157.5 228q18 112 -55.5 200.5t-211.5 114.5l167 149l-306 1l-7 -6l-5 -5l-78 -63q-81 -68 -207 -182q-1 -1 -16 -13q-97 -86 -114 -193zM374 313q7 49 61.5 85.5t119.5 36.5q64 0 107 -36.5t35 -84.5
q-8 -51 -61.5 -88t-119.5 -37q-67 0 -108.5 36.5t-33.5 87.5z" />
    <glyph glyph-name="seven" unicode="7" horiz-adv-x="920" 
d="M594 595l-36 -21q-87 -51 -134 -90q-177 -152 -221 -419l-10 -65h272l2 15q18 109 48 188t97 144q25 23 63 50q29 20 72 46q6 5 19 13t16 10q24 16 35 25q71 54 105.5 115.5t46.5 140.5q1 3 1 9t1 9l2 14h-782l-29 -184h432z" />
    <glyph glyph-name="eight" unicode="8" horiz-adv-x="811" 
d="M109 252q-18 -108 66.5 -186t227.5 -78q139 0 250.5 77t128.5 183q18 109 -66 184q59 57 69 125q15 93 -58 160.5t-196 67.5q-121 0 -217.5 -67t-110.5 -158q-10 -69 30 -128q-108 -78 -124 -180zM535 559q-5 -30 -46 -30q-16 0 -26.5 8.5t-8.5 19.5q2 14 14.5 23t31.5 9
q16 0 26.5 -9t8.5 -21zM381 288q29 28 76 28q35 0 57.5 -20t18.5 -46q-4 -28 -33 -46.5t-66 -18.5q-35 0 -57.5 19.5t-18.5 46.5q3 19 23 37z" />
    <glyph glyph-name="nine" unicode="9" horiz-adv-x="971" 
d="M975 463q21 133 -84.5 228.5t-281.5 95.5q-113 0 -216.5 -44t-170.5 -118t-80 -159q-18 -113 55.5 -201t211.5 -115l-167 -150l304 -1l14 10q46 35 89 72t112 99t84 75q3 3 9 7t8 7q96 85 113 194zM719 460q-7 -49 -61.5 -85t-119.5 -36q-64 0 -107 37t-35 85
q8 51 61.5 88.5t119.5 37.5q68 0 109 -37.5t33 -89.5z" />
    <glyph glyph-name="colon" unicode=":" horiz-adv-x="446" 
d="M346 534h-261l-33 -203h261zM293 203h-261l-32 -203h261z" />
    <glyph glyph-name="semicolon" unicode=";" horiz-adv-x="457" 
d="M356 534h-261l-32 -203h261zM302 202h-259l-16 -97q-5 -38 -31 -64t-81 -61q-43 -28 -79 -55l-14 -10l153 -135l16 12q8 6 131 87q66 45 110 104.5t54 121.5z" />
    <glyph glyph-name="less" unicode="&#x3c;" horiz-adv-x="592" 
d="M408 336l190 131l-138 123l-365 -254l285 -256l176 122z" />
    <glyph glyph-name="equal" unicode="=" horiz-adv-x="635" 
d="M652 527h-527l-20 -131h527zM621 330h-527l-20 -130h527z" />
    <glyph glyph-name="greater" unicode="&#x3e;" horiz-adv-x="592" 
d="M577 336l-285 254l-176 -123l149 -131l-191 -134l138 -122z" />
    <glyph glyph-name="question" unicode="?" horiz-adv-x="852" 
d="M821 529q19 124 -75.5 190t-257.5 66q-197 0 -373 -75l-31 -13l53 -174l19 5q8 2 67.5 18t92.5 24q91 22 156 22q49 0 70.5 -14.5t15.5 -47.5v-5q-1 0 -3 -2l-18 -9q-19 -7 -37 -11q-21 -6 -73 -19q-56 -16 -91 -32q-69 -29 -114.5 -77.5t-54.5 -104.5l-5 -32h259l4 12
q10 28 35 46q15 10 49 19q13 4 35.5 8.5t26.5 5.5q118 29 172 71q66 51 78 129zM414 201h-255l-32 -201h255z" />
    <glyph glyph-name="at" unicode="@" horiz-adv-x="975" 
d="M618 567q-28 12 -62 12q-86 0 -147.5 -61t-73.5 -135q-12 -76 29.5 -137t130.5 -61q32 0 58 9q50 -15 106 -15q126 0 212.5 74.5t103.5 184.5q26 166 -73 267t-288 101q-102 0 -189 -35t-146.5 -94.5t-98 -134t-51.5 -158.5q-30 -187 79 -305.5t322 -118.5q64 0 141.5 20
t122.5 58l10 8l-56 127l-21 -15q-57 -41 -173 -41q-134 0 -198.5 73.5t-45.5 193.5q18 113 90.5 189.5t190.5 76.5q129 0 181 -81h-154v-2zM788 537q14 -47 6 -99q-7 -45 -34 -75zM559 425q15 0 25 -13t8 -30q-3 -18 -17 -31t-29 -13t-24.5 13.5t-6.5 31.5q2 16 16 29t28 13
z" />
    <glyph glyph-name="A" unicode="A" horiz-adv-x="1098" 
d="M502 780l-454 -780h273l104 176h278l48 -176h279l-237 780h-291zM647 358h-121l83 149z" />
    <glyph glyph-name="B" unicode="B" horiz-adv-x="930" 
d="M626 780h-434l-124 -780h487q133 0 231 71.5t113 172.5q7 45 -13 87t-62 72q66 60 77 134q17 103 -61 173t-214 70zM422 589h173q30 0 47.5 -10.5t14.5 -28.5q-4 -27 -24 -43t-53 -16h-173zM580 199h-220l15 90h219q25 0 39 -12.5t11 -32.5q-3 -18 -13 -28t-32 -14
l-12 -3h-7z" />
    <glyph glyph-name="C" unicode="C" horiz-adv-x="1060" 
d="M384 17q89 -33 196 -33q240 0 415 129l14 10l-157 137l-15 -11q-99 -71 -226 -71q-111 0 -179.5 60t-54.5 144q13 86 101.5 151.5t199.5 65.5q95 0 206 -71l12 -8l196 121l-11 11q-65 65 -162.5 103t-209.5 38q-105 0 -210 -36q-150 -52 -250.5 -154t-119.5 -221
q-20 -119 49 -217.5t206 -147.5z" />
    <glyph glyph-name="D" unicode="D" horiz-adv-x="1002" 
d="M668 44q136 51 223 144.5t104 204.5q19 117 -48 213t-201 143q-90 31 -190 31h-364l-124 -780h364q118 0 236 44zM465 203h-108l59 374h108q104 0 172 -53t56 -131q-13 -80 -97 -135t-190 -55z" />
    <glyph glyph-name="E" unicode="E" horiz-adv-x="894" 
d="M916 570l33 210h-757l-124 -780h767l34 212h-510l12 79h331l31 198h-330l12 81h501z" />
    <glyph glyph-name="F" unicode="F" horiz-adv-x="894" 
d="M916 570l33 210h-757l-124 -780h257l46 291h331l31 198h-330l12 81h501z" />
    <glyph glyph-name="G" unicode="G" horiz-adv-x="1089" 
d="M505 289l280 3q-43 -50 -111.5 -79t-145.5 -29q-113 0 -181 58.5t-54 144.5q14 87 100.5 148t199.5 61q121 0 198 -77l11 -11l215 123l-10 12q-60 71 -162 110.5t-220 39.5q-122 0 -239 -43q-144 -53 -235 -150t-110 -213q-18 -115 44 -210.5t189 -147.5q107 -43 223 -43
q119 0 237 42q145 52 237.5 147.5t110.5 211.5l16 99h-562z" />
    <glyph glyph-name="H" unicode="H" horiz-adv-x="955" 
d="M381 284h285l-45 -284h265l124 780h-265l-43 -271h-286l43 271h-267l-124 -780h268z" />
    <glyph glyph-name="I" unicode="I" horiz-adv-x="401" 
d="M456 780h-264l-124 -780h264z" />
    <glyph glyph-name="J" unicode="J" horiz-adv-x="957" 
d="M132 403l-17 -107q-21 -132 82.5 -224.5t276.5 -92.5q119 0 230 49.5t173 131.5q48 63 59 136q12 75 36 231.5t37 237.5l2 15h-248l-74 -467q-8 -52 -60.5 -87.5t-120.5 -35.5q-70 0 -109 35q-43 40 -35 88l14 90h-246z" />
    <glyph glyph-name="K" unicode="K" horiz-adv-x="1013" 
d="M945 1l-213 398l322 381h-281l-221 -264h-145l42 264h-257l-124 -779h257l47 295h136l152 -295h285z" />
    <glyph glyph-name="L" unicode="L" horiz-adv-x="806" 
d="M456 780h-264l-124 -780h670l33 210h-406z" />
    <glyph glyph-name="M" unicode="M" horiz-adv-x="1364" 
d="M326 0l104 375l121 -375h263l234 376l-9 -376h257l15 780h-283l-303 -513l-144 513h-286l-227 -780h258z" />
    <glyph glyph-name="N" unicode="N" horiz-adv-x="1003" 
d="M1057 780h-260l-66 -417l-286 417h-253l-124 -780h261l69 433l294 -433h242z" />
    <glyph glyph-name="O" unicode="O" 
d="M793 19q155 48 256 147t121 221q18 116 -41 212t-185 149q-107 45 -231 45t-245 -45q-141 -54 -231 -150t-108 -211q-19 -121 50.5 -220t208.5 -148q94 -33 197 -33t208 33zM681 596q113 0 182.5 -61.5t55.5 -147.5q-13 -85 -101.5 -144t-201.5 -59t-181 58.5t-54 144.5
q14 87 100.5 148t199.5 61z" />
    <glyph glyph-name="P" unicode="P" horiz-adv-x="885" 
d="M608 780h-416l-124 -780h260l41 261h157q134 0 246 80t128 181q16 102 -71 180t-221 78zM420 582h157q37 0 62.5 -17.5t21.5 -42.5q-4 -26 -35.5 -44t-68.5 -18h-156z" />
    <glyph glyph-name="Q" unicode="Q" horiz-adv-x="1220" 
d="M969 -19l202 140l-88 81q72 85 87 185q19 121 -47.5 220.5t-201.5 149.5q-97 36 -205 36q-219 0 -389.5 -119.5t-197.5 -286.5q-17 -108 38 -200t167 -146.5t255 -54.5q160 0 299 68zM686 599q114 0 181 -62t53 -150q-14 -86 -101 -147t-200 -61q-114 0 -184 61t-56 147
q14 88 103 150t204 62z" />
    <glyph glyph-name="R" unicode="R" horiz-adv-x="972" 
d="M650 780h-458l-124 -780h261l42 264h92l156 -264h284l-173 292q60 23 90 48q7 6 18.5 17.5t15.5 14.5q76 76 88 149q10 66 -41 147q-14 21 -17 25q-9 12 -24 24q-91 63 -210 63zM420 577h198q37 0 62 -16t21 -40t-33.5 -40t-66.5 -16h-198z" />
    <glyph glyph-name="S" unicode="S" horiz-adv-x="1063" 
d="M504 587q64 14 138 14q126 0 307 -50l19 -6l109 194l-16 5q-177 63 -378 63q-456 0 -527 -261q-2 -9 -4 -23q-12 -69 38 -123q38 -41 91 -59.5t131 -27.5q46 -5 140 -11q26 -2 39 -2q32 0 53 -1q28 0 63 -5q32 -4 47 -13t13 -22q-7 -42 -77 -60q-50 -14 -134 -14
q-173 0 -353 83l-47 22l-65 -211l12 -5q128 -51 225.5 -69.5t246.5 -18.5q114 0 203 24t157 81t95 145q4 16 5 23q9 60 -19.5 111.5t-90.5 82.5q-41 21 -107.5 33t-123.5 13q-94 0 -157 3q-46 2 -83 8q-32 6 -39 13v3q0 7 1 10q4 32 88 51z" />
    <glyph glyph-name="T" unicode="T" horiz-adv-x="944" 
d="M967 577l32 203h-807l-33 -203h273l-91 -577h265l91 577h270z" />
    <glyph glyph-name="U" unicode="U" horiz-adv-x="957" 
d="M116 300q-21 -132 82 -224.5t277 -92.5q173 0 307 93t155 224l76 482h-250l-74 -467q-8 -52 -60.5 -87t-120.5 -35q-70 0 -108 35q-43 39 -36 87l74 467h-246z" />
    <glyph glyph-name="V" unicode="V" horiz-adv-x="1094" 
d="M475 782h-283l201 -782h302l454 782h-278l-275 -487z" />
    <glyph glyph-name="W" unicode="W" horiz-adv-x="1393" 
d="M497 405l-83 375h-272l186 -783h202l205 382l84 -382h193l436 783h-273l-194 -366l-83 366h-204z" />
    <glyph glyph-name="X" unicode="X" horiz-adv-x="978" 
d="M380 410l-360 -411h287l192 225l119 -225h283l-229 411l360 370h-301l-174 -189l-120 189h-295z" />
    <glyph glyph-name="Y" unicode="Y" horiz-adv-x="1108" 
d="M469 284l-1 -3v-5l-5 -29q-2 -14 -7 -45.5t-7 -43.5q-19 -124 -23 -143l-2 -15h260l2 15q4 19 23 143l14 89q1 5 2.5 15t2.5 14v5l1 3q23 37 61 77q1 1 30 30.5t46 48.5l298 340h-275l-255 -285l-166 285h-276l190 -340q10 -19 29.5 -48t20.5 -31q26 -40 37 -77z" />
    <glyph glyph-name="Z" unicode="Z" horiz-adv-x="991" 
d="M518 201l527 579h-785l-31 -198h369l-530 -582h824l32 201h-406z" />
    <glyph glyph-name="bracketleft" unicode="[" horiz-adv-x="509" 
d="M144 911l-164 -1040h430l30 192h-168l104 654h168l31 194h-431z" />
    <glyph glyph-name="backslash" unicode="\" horiz-adv-x="730" 
d="M143 911l300 -1040h267l-300 1040h-267z" />
    <glyph glyph-name="bracketright" unicode="]" horiz-adv-x="577" 
d="M410 -129l165 1040h-431l-30 -194h168l-104 -654h-168l-30 -192h430z" />
    <glyph glyph-name="underscore" unicode="_" horiz-adv-x="811" 
d="M692 178h-664l-28 -178h664z" />
    <glyph glyph-name="a" unicode="a" horiz-adv-x="1118" 
d="M522 780l-454 -780h273l104 176h278l48 -176h279l-237 780h-291zM667 358h-121l83 149z" />
    <glyph glyph-name="b" unicode="b" horiz-adv-x="930" 
d="M626 780h-434l-124 -780h487q133 0 231 71.5t113 172.5q7 45 -13 87t-62 72q66 60 77 134q17 103 -61 173t-214 70zM422 589h173q30 0 47.5 -10.5t14.5 -28.5q-4 -27 -24 -43t-53 -16h-173zM580 199h-220l15 90h219q25 0 39 -12.5t11 -32.5q-3 -18 -13 -28t-32 -14
l-12 -3h-7z" />
    <glyph glyph-name="c" unicode="c" horiz-adv-x="1060" 
d="M384 17q89 -33 196 -33q240 0 415 129l14 10l-157 137l-15 -11q-99 -71 -226 -71q-111 0 -179.5 60t-54.5 144q13 86 101.5 151.5t199.5 65.5q95 0 206 -71l12 -8l196 121l-11 11q-65 65 -162.5 103t-209.5 38q-105 0 -210 -36q-150 -52 -250.5 -154t-119.5 -221
q-20 -119 49 -217.5t206 -147.5z" />
    <glyph glyph-name="d" unicode="d" horiz-adv-x="1002" 
d="M668 44q136 51 223 144.5t104 204.5q19 117 -48 213t-201 143q-90 31 -190 31h-364l-124 -780h364q118 0 236 44zM465 203h-108l59 374h108q104 0 172 -53t56 -131q-13 -80 -97 -135t-190 -55z" />
    <glyph glyph-name="e" unicode="e" horiz-adv-x="903" 
d="M916 570l33 210h-757l-124 -780h767l34 212h-510l12 79h331l31 198h-330l12 81h501z" />
    <glyph glyph-name="f" unicode="f" horiz-adv-x="894" 
d="M916 570l33 210h-757l-124 -780h257l46 291h331l31 198h-330l12 81h501z" />
    <glyph glyph-name="g" unicode="g" 
d="M593 289l280 3q-43 -50 -111.5 -79t-145.5 -29q-113 0 -181 58.5t-54 144.5q14 87 100.5 148t199.5 61q121 0 198 -77l11 -11l215 123l-10 12q-60 71 -162 110.5t-220 39.5q-122 0 -239 -43q-144 -53 -235 -150t-110 -213q-18 -115 44 -210.5t189 -147.5q107 -43 223 -43
q119 0 237 42q145 52 237.5 147.5t110.5 211.5l16 99h-562z" />
    <glyph glyph-name="h" unicode="h" horiz-adv-x="955" 
d="M381 284h285l-45 -284h265l124 780h-265l-43 -271h-286l43 271h-267l-124 -780h268z" />
    <glyph glyph-name="i" unicode="i" horiz-adv-x="401" 
d="M456 780h-264l-124 -780h264z" />
    <glyph glyph-name="j" unicode="j" horiz-adv-x="957" 
d="M132 403l-17 -107q-21 -132 82.5 -224.5t276.5 -92.5q119 0 230 49.5t173 131.5q48 63 59 136q12 75 36 231.5t37 237.5l2 15h-248l-74 -467q-8 -52 -60.5 -87.5t-120.5 -35.5q-70 0 -109 35q-43 40 -35 88l14 90h-246z" />
    <glyph glyph-name="k" unicode="k" horiz-adv-x="1013" 
d="M945 1l-213 398l322 381h-281l-221 -264h-145l42 264h-257l-124 -779h257l47 295h136l152 -295h285z" />
    <glyph glyph-name="l" unicode="l" horiz-adv-x="806" 
d="M456 780h-264l-124 -780h670l33 210h-406z" />
    <glyph glyph-name="m" unicode="m" horiz-adv-x="1364" 
d="M326 0l104 375l121 -375h263l234 376l-9 -376h257l15 780h-283l-303 -513l-144 513h-286l-227 -780h258z" />
    <glyph glyph-name="n" unicode="n" horiz-adv-x="1003" 
d="M1057 780h-260l-66 -417l-286 417h-253l-124 -780h261l69 433l294 -433h242z" />
    <glyph glyph-name="o" unicode="o" 
d="M793 19q155 48 256 147t121 221q18 116 -41 212t-185 149q-107 45 -231 45t-245 -45q-141 -54 -231 -150t-108 -211q-19 -121 50.5 -220t208.5 -148q94 -33 197 -33t208 33zM681 596q113 0 182.5 -61.5t55.5 -147.5q-13 -85 -101.5 -144t-201.5 -59t-181 58.5t-54 144.5
q14 87 100.5 148t199.5 61z" />
    <glyph glyph-name="p" unicode="p" horiz-adv-x="885" 
d="M608 780h-416l-124 -780h260l41 261h157q134 0 246 80t128 181q16 102 -71 180t-221 78zM420 582h157q37 0 62.5 -17.5t21.5 -42.5q-4 -26 -35.5 -44t-68.5 -18h-156z" />
    <glyph glyph-name="q" unicode="q" horiz-adv-x="1220" 
d="M969 -19l202 140l-88 81q72 85 87 185q19 121 -47.5 220.5t-201.5 149.5q-97 36 -205 36q-219 0 -389.5 -119.5t-197.5 -286.5q-17 -108 38 -200t167 -146.5t255 -54.5q160 0 299 68zM686 599q114 0 181 -62t53 -150q-14 -86 -101 -147t-200 -61q-114 0 -184 61t-56 147
q14 88 103 150t204 62z" />
    <glyph glyph-name="r" unicode="r" horiz-adv-x="972" 
d="M650 780h-458l-124 -780h261l42 264h92l156 -264h284l-173 292q60 23 90 48q7 6 18.5 17.5t15.5 14.5q76 76 88 149q10 66 -41 147q-14 21 -17 25q-9 12 -24 24q-91 63 -210 63zM420 577h198q37 0 62 -16t21 -40t-33.5 -40t-66.5 -16h-198z" />
    <glyph glyph-name="s" unicode="s" horiz-adv-x="1063" 
d="M504 587q64 14 138 14q126 0 307 -50l19 -6l109 194l-16 5q-177 63 -378 63q-456 0 -527 -261q-2 -9 -4 -23q-12 -69 38 -123q38 -41 91 -59.5t131 -27.5q46 -5 140 -11q26 -2 39 -2q32 0 53 -1q28 0 63 -5q32 -4 47 -13t13 -22q-7 -42 -77 -60q-50 -14 -134 -14
q-173 0 -353 83l-47 22l-65 -211l12 -5q128 -51 225.5 -69.5t246.5 -18.5q114 0 203 24t157 81t95 145q4 16 5 23q9 60 -19.5 111.5t-90.5 82.5q-41 21 -107.5 33t-123.5 13q-94 0 -157 3q-46 2 -83 8q-32 6 -39 13v3q0 7 1 10q4 32 88 51z" />
    <glyph glyph-name="t" unicode="t" horiz-adv-x="944" 
d="M967 577l32 203h-807l-33 -203h273l-91 -577h265l91 577h270z" />
    <glyph glyph-name="u" unicode="u" horiz-adv-x="957" 
d="M116 300q-21 -132 82 -224.5t277 -92.5q173 0 307 93t155 224l76 482h-250l-74 -467q-8 -52 -60.5 -87t-120.5 -35q-70 0 -108 35q-43 39 -36 87l74 467h-246z" />
    <glyph glyph-name="v" unicode="v" horiz-adv-x="1094" 
d="M475 782h-283l201 -782h302l454 782h-278l-275 -487z" />
    <glyph glyph-name="w" unicode="w" horiz-adv-x="1443" 
d="M547 405l-83 375h-272l186 -783h202l205 382l84 -382h193l436 783h-273l-194 -366l-83 366h-204z" />
    <glyph glyph-name="x" unicode="x" horiz-adv-x="1028" 
d="M430 410l-360 -411h287l192 225l119 -225h283l-229 411l360 370h-301l-174 -189l-120 189h-295z" />
    <glyph glyph-name="y" unicode="y" horiz-adv-x="1108" 
d="M469 284l-1 -3v-5l-5 -29q-2 -14 -7 -45.5t-7 -43.5q-19 -124 -23 -143l-2 -15h260l2 15q4 19 23 143l14 89q1 5 2.5 15t2.5 14v5l1 3q23 37 61 77q1 1 30 30.5t46 48.5l298 340h-275l-255 -285l-166 285h-276l190 -340q10 -19 29.5 -48t20.5 -31q26 -40 37 -77z" />
    <glyph glyph-name="z" unicode="z" horiz-adv-x="991" 
d="M518 201l527 579h-785l-31 -198h369l-530 -582h824l32 201h-406z" />
    <glyph glyph-name="bar" unicode="|" horiz-adv-x="387" 
d="M381 914h-236l-166 -1047h236z" />
    <glyph glyph-name="asciitilde" unicode="~" horiz-adv-x="812" 
d="M275 294q46 27 75 27q10 0 32 -4q7 -2 18.5 -5.5t15.5 -4.5q61 -16 121 -16q79 0 138 28t122 82l13 12l-155 106l-15 -12q-22 -20 -40 -31q-23 -14 -40 -14q-9 0 -33 4q-6 1 -18 3.5t-18 3.5q-40 10 -61 13q-37 7 -68 7q-72 0 -127.5 -24.5t-115.5 -70.5l-16 -12l159 -99
z" />
    <glyph glyph-name="uni00A0" unicode="&#xa0;" horiz-adv-x="0" 
 />
    <glyph glyph-name="exclamdown" unicode="&#xa1;" horiz-adv-x="426" 
d="M385 780h-261l-33 -204h261zM347 546h-261l-86 -546h261z" />
    <glyph glyph-name="cent" unicode="&#xa2;" horiz-adv-x="873" 
d="M275 -227h174l40 251q130 24 217 112t122 206l6 20h-211l-6 -13q-5 -11 -6 -13q-2 -4 -4.5 -10.5t-4.5 -10.5q-26 -56 -81 -86l50 313q46 -30 56 -105l3 -28h211l1 19q4 118 -56.5 206t-182.5 112l39 246h-174l-39 -251q-134 -31 -220.5 -132t-105.5 -223
q-12 -79 5 -150.5t70.5 -128.5t137.5 -78zM395 528l-45 -285q-51 49 -37 143q16 94 82 142z" />
    <glyph glyph-name="sterling" unicode="&#xa3;" horiz-adv-x="913" 
d="M538 186q-39 12 -77 16q34 50 49 106h161l37 233h-203q-7 55 -1 93q4 27 21.5 46.5t41.5 19.5q34 0 43 -38q4 -17 4 -40v-37l1 -16l284 42v14q-1 9 -1 28.5v29.5q0 32 -7 59q-20 89 -90.5 139.5t-190.5 50.5q-24 0 -36 -2q-11 -1 -33 -5q-167 -25 -238 -119
q-66 -90 -79 -170q-7 -43 -5 -95h-81l-37 -233h127q-14 -51 -48 -88q-17 -19 -46 -41q-11 -8 -62 -44l-10 -7l69 -241l24 15q28 16 42 25q22 13 41 23q47 22 85 22q28 0 60 -8q27 -6 64 -17q89 -27 145 -27q60 0 125 20q39 12 112 43l15 6l-73 234l-21 -9q-1 0 -29 -11.5
t-44 -16.5q-43 -15 -68 -15q-15 0 -35 5q-6 1 -18 4.5t-18 5.5z" />
    <glyph glyph-name="yen" unicode="&#xa5;" horiz-adv-x="842" 
d="M321 108l-26 -165h206l26 165h222l28 175h-222l5 34h222l28 175h-144l246 386h-227l-170 -271q-2 -5 -8.5 -14.5t-8.5 -13.5q-2 5 -4.5 14t-3.5 14l-84 271h-225l123 -386h-144l-28 -175h222l-5 -34h-222l-28 -175h222z" />
    <glyph glyph-name="copyright" unicode="&#xa9;" horiz-adv-x="1039" 
d="M68 390q0 -103 66.5 -186.5t169.5 -127t216 -43.5t215.5 44t169 127t66.5 186q0 102 -66.5 185.5t-169 127t-215.5 43.5t-216 -43.5t-169.5 -127t-66.5 -185.5zM199 390q0 108 96.5 179t224.5 71q127 0 223.5 -71.5t96.5 -178.5q0 -106 -97 -177t-223 -71
q-127 0 -224 70.5t-97 177.5zM720 279l-97 78l-13 -11q-41 -31 -86 -31q-42 0 -71 22t-29 57q0 31 30.5 54t69.5 23q24 0 45 -8q8 -3 23 -10.5t22 -10.5l11 -5l98 67l-15 13q-79 72 -184 72t-173 -61q-30 -26 -49.5 -62.5t-19.5 -71.5q0 -85 73 -138.5t169 -53.5
q50 0 103.5 16t81.5 48z" />
    <glyph glyph-name="registered" unicode="&#xae;" horiz-adv-x="1038" 
d="M68 387q0 -103 66 -186t168 -126t216 -43q84 0 165 26t144.5 71t102.5 112.5t39 145.5q0 104 -66 187t-168.5 126.5t-216.5 43.5q-115 0 -217 -43.5t-167.5 -126.5t-65.5 -187zM198 387q0 70 46.5 128.5t119.5 90.5t154 32q127 0 223.5 -72t96.5 -179q0 -105 -97 -176
t-223 -71q-124 0 -222 71.5t-98 175.5zM740 214l-102 137q33 16 52.5 44.5t19.5 61.5q0 51 -45 90t-104 39h-227v-372h145v116h14l84 -116h163zM572 462v-5q0 -17 -25 -17h-68v34h68q10 0 19 -7q3 -2 6 -5z" />
    <glyph glyph-name="degree" unicode="&#xb0;" horiz-adv-x="636" 
d="M320 436q105 0 188.5 59t95.5 138q13 79 -51.5 139t-169.5 60q-106 0 -189.5 -59t-96.5 -140q-12 -80 53 -138.5t170 -58.5zM359 684q28 0 46 -15t14 -36q-3 -20 -25.5 -35.5t-50.5 -15.5q-27 0 -45 15.5t-15 35.5q4 21 26 36t50 15z" />
    <glyph glyph-name="acute" unicode="&#xb4;" horiz-adv-x="535" 
d="M136 842h231l254 219h-272z" />
    <glyph glyph-name="periodcentered" unicode="&#xb7;" horiz-adv-x="380" 
d="M290 473h-215l-28 -178h214z" />
    <glyph glyph-name="questiondown" unicode="&#xbf;" horiz-adv-x="852" 
d="M505 780h-255l-32 -202h255zM514 251q-10 -63 -106 -63q-64 0 -150 21q-28 7 -78 22.5t-68 20.5l-18 5l-107 -174l26 -13q71 -35 165 -55t184 -20q163 0 279.5 66t135.5 190q12 79 -37 130q-41 41 -150 69q-1 0 -23 5.5t-34 9.5q-34 10 -43 19q-20 18 -21 45v13h-259
l-3 -15q-16 -88 33.5 -142.5t156.5 -87.5q7 -2 18 -5t26 -7.5t24 -6.5q18 -6 33 -12q11 -5 16 -10l1 -2l-1 -1v-2z" />
    <glyph glyph-name="multiply" unicode="&#xd7;" horiz-adv-x="637" 
d="M79 236l97 -120l172 150l121 -150l138 120l-124 150l172 148l-101 119l-168 -147l-125 147l-134 -119l121 -148z" />
    <glyph glyph-name="divide" unicode="&#xf7;" horiz-adv-x="591" 
d="M289 557q-5 -32 13 -57t56 -25q37 0 63.5 25t31.5 57q6 33 -13 58t-56 25q-38 0 -63.5 -25t-31.5 -58zM92 316h482l21 130h-482zM233 205q-5 -33 13 -58t56 -25q37 0 63.5 25.5t31.5 57.5q6 32 -12.5 58t-55.5 26t-63.5 -25.5t-32.5 -58.5z" />
    <glyph glyph-name="circumflex" unicode="&#x2c6;" horiz-adv-x="720" 
d="M595 1059h-231l-234 -239h267l57 56l34 -56h268z" />
    <glyph glyph-name="caron" unicode="&#x2c7;" horiz-adv-x="698" 
d="M434 1059h-265l158 -239h223l247 239h-269l-53 -57z" />
    <glyph glyph-name="tilde" unicode="&#x2dc;" horiz-adv-x="786" 
d="M319 822q40 26 74 26q17 0 32 -4q11 -2 33 -8q66 -19 121 -19q79 0 138.5 29t122.5 83l13 11l-154 107l-15 -13q-19 -18 -40 -31q-20 -13 -41 -13q-15 0 -32 3l-35 9q-10 2 -31 6.5t-32 6.5q-44 6 -69 6q-125 0 -242 -96l-14 -12l157 -101z" />
    <glyph glyph-name="endash" unicode="&#x2013;" horiz-adv-x="811" 
d="M739 473h-664l-28 -178h663z" />
    <glyph glyph-name="emdash" unicode="&#x2014;" horiz-adv-x="1233" 
d="M1159 473h-1084l-28 -178h1084z" />
    <glyph glyph-name="quoteleft" unicode="&#x2018;" horiz-adv-x="579" 
d="M81 512h248l16 97q5 36 32.5 63t82.5 64q52 36 77 54l15 11l-155 133l-15 -11q-5 -4 -130 -88q-134 -92 -156 -226z" />
    <glyph glyph-name="quoteright" unicode="&#x2019;" horiz-adv-x="578" 
d="M570 921h-250l-15 -98q-6 -37 -32.5 -63.5t-81.5 -62.5q-52 -36 -77 -55l-14 -10l153 -137l16 13q17 14 63 45q52 33 67 44q133 91 155 226z" />
    <glyph glyph-name="quotesinglbase" unicode="&#x201a;" horiz-adv-x="444" 
d="M302 202h-259l-16 -97q-5 -38 -31 -64t-81 -61q-43 -28 -79 -55l-14 -10l153 -135l16 12q8 6 131 87q66 45 110 104.5t54 121.5z" />
    <glyph glyph-name="quotedblleft" unicode="&#x201c;" horiz-adv-x="770" 
d="M339 511h259l16 97q6 38 32 64t80 61q54 36 79 55l14 11l-153 135l-16 -12q-5 -4 -130 -88q-146 -99 -166 -226zM-11 511h260l15 97q8 48 67 95q19 16 60 43.5t58 41.5l14 10l-148 133l-15 -8q-62 -34 -107 -64t-87.5 -68.5t-68 -84t-33.5 -98.5z" />
    <glyph glyph-name="quotedblright" unicode="&#x201d;" horiz-adv-x="770" 
d="M415 921h-259l-15 -98q-6 -37 -32.5 -63.5t-81.5 -62.5q-52 -36 -77 -55l-14 -10l153 -137l16 13q31 24 63 45q52 33 67 44q145 100 165 226zM766 921h-260l-16 -98q-7 -44 -69 -100q-23 -22 -58 -48q-27 -19 -58 -43l-14 -11l154 -133l16 11q43 32 129 94
q139 98 160 230z" />
    <glyph glyph-name="quotedblbase" unicode="&#x201e;" horiz-adv-x="774" 
d="M302 202h-259l-16 -97q-5 -38 -31 -64t-81 -61q-43 -28 -79 -55l-14 -10l153 -135l16 12q8 6 131 87q66 45 110 104.5t54 121.5zM652 202h-260l-15 -97q-5 -36 -42 -73q-67 -67 -142 -115l-16 -10l154 -139l17 13q41 32 129 94q139 98 160 230z" />
    <glyph glyph-name="bullet" unicode="&#x2022;" horiz-adv-x="464" 
d="M405 407q8 52 -36 92.5t-114 40.5t-126.5 -40.5t-64.5 -92.5q-8 -53 35.5 -93t113.5 -40t127 39.5t65 93.5z" />
    <glyph glyph-name="ellipsis" unicode="&#x2026;" horiz-adv-x="1097" 
d="M276 203h-244l-32 -203h244zM614 203h-244l-32 -203h244zM952 203h-244l-32 -203h244z" />
    <glyph glyph-name="Euro" unicode="&#x20ac;" horiz-adv-x="1043" 
d="M86 276h93q9 -155 114 -257t283 -102q226 0 392 169l25 26l-166 159l-15 -19q-85 -106 -200 -106q-67 0 -111 35.5t-60 94.5h378l34 219h-378q34 59 89.5 94.5t123.5 35.5q59 0 101.5 -28t63.5 -77l9 -20l217 158l-17 25q-112 170 -338 170q-178 0 -315 -101.5
t-196 -256.5h-93z" />
    <glyph glyph-name="trademark" unicode="&#x2122;" horiz-adv-x="1124" 
d="M380 771h-379v-111h113v-258h148v258h118v111zM951 402l-48 369h-148l-84 -198l-87 198h-150l-48 -369h146l13 119l57 -119h135l57 122l18 -122h139z" />
    <glyph glyph-name="NULL" horiz-adv-x="0" 
 />
    <glyph glyph-name="_FSHallmark" horiz-adv-x="1134" 
d="M73 644v99h993v-99h-993zM852 174q-47 0 -80 9q-37 9 -70 29q-34 20 -52 47q-18 26 -18 65h115q0 -7 4 -16q5 -18 18 -26q14 -11 29 -17q21 -11 57 -11q38 0 64 13q24 11 24 26q0 29 -96 46q-98 24 -142 47q-62 19 -62 82q0 46 40 75q31 23 86 40q30 8 83 8t112 -18
q51 -17 80 -65q12 -27 12 -51h-119q0 11 -9 22q-3 3 -22 18l-28 11q-24 2 -27 2q-38 0 -59 -12q-25 -12 -25 -29q0 -29 22 -41q10 -6 54 -18l79 -16q9 -1 36 -7q22 -2 30 -7q2 -1 11 -4.5t15 -4.5q19 -12 37 -28q10 -20 13 -43q3 -25 -12 -51q-27 -41 -88 -59
q-55 -16 -112 -16zM73 174v416h417v-95h-288v-93h238v-91h-238v-137h-129zM539 176q-21 0 -41 16q-19 12 -19 34q0 20 18 35q18 13 42 13q27 0 47 -15q19 -14 19 -33q0 -20 -19 -36q-23 -14 -47 -14zM68 23v100h996v-100h-996z" />
    <glyph glyph-name="_Fontastica" horiz-adv-x="854" 
d="M70 144q-2 1 -2 5v580h516v-87h-397v-241h400v-90h-400v-167h-117zM261 145v88h401v239h-401v92h401v165h119v-584h-520zM674 49q-9 0 -21 6q-5 5 -10 19q-1 10 7 18q12 11 24 11q14 0 25 -11l-5 -6l-7 4q-2 2 -10 2h-3q-10 -4 -12 -6q-5 -2 -5 -8q0 -7 5 -14q6 -4 12 -4
t20 4l5 -4q-8 -11 -25 -11zM70 51v50h44v-9h-28v-13h28v-9h-28v-19h-16zM167 48q-8 0 -14 3q-18 7 -18 22q0 13 9 19q7 9 23 9q23 0 30 -13q11 -9 3 -24q-7 -12 -26 -15zM275 49q-2 0 -10 6q0 1 -2 3.5t-3 4.5l-6 7q-12 12 -13 12v-31h-13v50h11q5 0 7 -5l14 -14
q5 -9 11 -15v34h11v-50h-3q-1 -2 -4 -2zM327 51v41h-18v9h49v-9h-19v-41h-12zM486 49q-20 0 -30 8q2 2 2 3v2q0 2 3 2l18 -4h8q4 4 4 3q0 7 -14 10q-1 0 -2 1q0 1 -6 1q-8 0 -8 11q-4 8 8 14q4 1 13 1q17 0 24 -4l-4 -9q-3 1 -5 1t-3 1h-4l-3 2h-8q-4 0 -4 -3q0 -4 4 -7
q5 -1 15 -4q12 -4 12 -12q3 -10 -11 -15q-1 -2 -9 -2zM544 51v41h-17v9h50v-9h-17v-41h-16zM602 51v50h15v-50h-15zM720 51q15 28 23 50h16l13 -23q0 -2 2.5 -7t2.5 -7q7 -12 8 -13h-13l-6 11h-29l-4 -11h-13zM372 51l25 49h13q6 -11 7 -12t7 -13q4 -8 4 -11l6 -13h-13v4
q0 1 -1.5 2.5t-2.5 4.5h-28v-7q-2 0 -2 -2l-3 -2h-12zM167 59q5 0 7 1q11 3 11 15q0 10 -4 13q-10 4 -14 4l-4 -2q-6 0 -11 -8q-9 -5 -2 -12q3 -11 17 -11zM393 70h19q0 5 -2 5q-1 0 -1 3q-1 2 -1 3q-3 0 -3 4q0 3 -1 4zM740 70h21q-2 1 -2 5q-2 0 -2 6q0 1 -3 4q0 3 -3 4z
" />
    </font>
</defs>
</svg>
