<svg width="24" height="24" viewBox="0 0 24 24" fill="none" xmlns="http://www.w3.org/2000/svg">
<path d="M6 7.75C6 7.33579 6.33579 7 6.75 7H17.25C17.6642 7 18 7.33579 18 7.75C18 8.16421 17.6642 8.5 17.25 8.5H6.75C6.33579 8.5 6 8.16421 6 7.75Z" fill="white"/>
<path d="M6 12C6 11.5858 6.33579 11.25 6.75 11.25H17.25C17.6642 11.25 18 11.5858 18 12C18 12.4142 17.6642 12.75 17.25 12.75H6.75C6.33579 12.75 6 12.4142 6 12Z" fill="white"/>
<path d="M6.75 15.5C6.33579 15.5 6 15.8358 6 16.25C6 16.6642 6.33579 17 6.75 17H17.25C17.6642 17 18 16.6642 18 16.25C18 15.8358 17.6642 15.5 17.25 15.5H6.75Z" fill="white"/>
</svg>
